<svg xmlns="http://www.w3.org/2000/svg" xmlns:xlink="http://www.w3.org/1999/xlink" xmlns:lucid="lucid" width="1151.72" height="1280"><g transform="translate(-385.65 1260)" lucid:page-tab-id="rLenIQeae6_f"><path d="M0-1259.2h1870.4V64H0z" fill="#fff"/><path d="M1000-920c0 33.14-35.82 60-80 60s-80-26.86-80-60 35.82-60 80-60 80 26.86 80 60z" stroke="#000" stroke-width="2" fill="#fff"/><use xlink:href="#a" transform="matrix(1,0,0,1,840,-980) translate(44.07999999999999 63.15)"/><path d="M539.75-640.25c0 10.9-8.84 19.75-19.75 19.75-10.9 0-19.75-8.84-19.75-19.75 0-10.9 8.84-19.75 19.75-19.75 10.9 0 19.75 8.84 19.75 19.75z" stroke="#000" stroke-width="2" fill="#fff"/><path d="M520-620.5v55.3l40 63.2m-40-63.2L480-502m0-98.75h80" stroke="#000" stroke-width="2" fill="none"/><path d="M480-660h80v180h-80z" fill="none"/><use xlink:href="#b" transform="matrix(1,0,0,1,400,-502.0000000000001) translate(7.6499999999999915 14.4)"/><use xlink:href="#c" transform="matrix(1,0,0,1,400,-502.0000000000001) translate(95.55 14.4)"/><use xlink:href="#d" transform="matrix(1,0,0,1,400,-502.0000000000001) translate(123.5 14.4)"/><use xlink:href="#e" transform="matrix(1,0,0,1,400,-502.0000000000001) translate(212.35000000000002 14.4)"/><use xlink:href="#f" transform="matrix(1,0,0,1,400,-502.0000000000001) translate(73.07499999999999 36)"/><use xlink:href="#g" transform="matrix(1,0,0,1,400,-502.0000000000001) translate(121.02499999999999 36)"/><path d="M1419.75-640.25c0 10.9-8.84 19.75-19.75 19.75-10.9 0-19.75-8.84-19.75-19.75 0-10.9 8.84-19.75 19.75-19.75 10.9 0 19.75 8.84 19.75 19.75z" stroke="#000" stroke-width="2" fill="#fff"/><path d="M1400-620.5v55.3l40 63.2m-40-63.2l-40 63.2m0-98.75h80" stroke="#000" stroke-width="2" fill="none"/><path d="M1360-660h80v180h-80z" fill="none"/><use xlink:href="#b" transform="matrix(1,0,0,1,1280,-502.0000000000001) translate(4.625 14.4)"/><use xlink:href="#h" transform="matrix(1,0,0,1,1280,-502.0000000000001) translate(92.525 14.4)"/><use xlink:href="#d" transform="matrix(1,0,0,1,1280,-502.0000000000001) translate(126.525 14.4)"/><use xlink:href="#e" transform="matrix(1,0,0,1,1280,-502.0000000000001) translate(215.375 14.4)"/><use xlink:href="#f" transform="matrix(1,0,0,1,1280,-502.0000000000001) translate(63.574999999999996 36)"/><use xlink:href="#i" transform="matrix(1,0,0,1,1280,-502.0000000000001) translate(111.525 36)"/><path d="M1000-760c0 33.14-35.82 60-80 60s-80-26.86-80-60 35.82-60 80-60 80 26.86 80 60z" stroke="#000" stroke-width="2" fill="#fff"/><use xlink:href="#j" transform="matrix(1,0,0,1,840,-820) translate(31.804999999999993 51.9)"/><use xlink:href="#k" transform="matrix(1,0,0,1,840,-820) translate(114.255 51.9)"/><use xlink:href="#l" transform="matrix(1,0,0,1,840,-820) translate(42.55499999999999 73.5)"/><path d="M1000-570c0 33.14-35.82 60-80 60s-80-26.86-80-60 35.82-60 80-60 80 26.86 80 60z" stroke="#000" stroke-width="2" fill="#fff"/><use xlink:href="#m" transform="matrix(1,0,0,1,840,-630.0000000000001) translate(36.555 31.410000000000004)"/><use xlink:href="#n" transform="matrix(1,0,0,1,840,-630.0000000000001) translate(22.57999999999999 53.01)"/><use xlink:href="#o" transform="matrix(1,0,0,1,840,-630.0000000000001) translate(29.054999999999993 74.61)"/><use xlink:href="#p" transform="matrix(1,0,0,1,840,-630.0000000000001) translate(48.004999999999995 74.61)"/><use xlink:href="#q" transform="matrix(1,0,0,1,840,-630.0000000000001) translate(107.005 74.61)"/><use xlink:href="#l" transform="matrix(1,0,0,1,840,-630.0000000000001) translate(42.555 96.21000000000001)"/><path d="M1000-400c0 33.14-35.82 60-80 60s-80-26.86-80-60 35.82-60 80-60 80 26.86 80 60z" stroke="#000" stroke-width="2" fill="#fff"/><use xlink:href="#m" transform="matrix(1,0,0,1,840,-460) translate(36.555 31.410000000000004)"/><use xlink:href="#r" transform="matrix(1,0,0,1,840,-460) translate(15.604999999999999 53.01)"/><use xlink:href="#o" transform="matrix(1,0,0,1,840,-460) translate(29.054999999999993 74.61)"/><use xlink:href="#p" transform="matrix(1,0,0,1,840,-460) translate(48.004999999999995 74.61)"/><use xlink:href="#q" transform="matrix(1,0,0,1,840,-460) translate(107.005 74.61)"/><use xlink:href="#l" transform="matrix(1,0,0,1,840,-460) translate(42.555 96.21000000000001)"/><path d="M1000-240c0 33.14-35.82 60-80 60s-80-26.86-80-60 35.82-60 80-60 80 26.86 80 60z" stroke="#000" stroke-width="2" fill="#fff"/><use xlink:href="#s" transform="matrix(1,0,0,1,840,-300) translate(24.05499999999999 40.65)"/><use xlink:href="#t" transform="matrix(1,0,0,1,840,-300) translate(81.005 40.65)"/><use xlink:href="#u" transform="matrix(1,0,0,1,840,-300) translate(29.054999999999993 62.25)"/><use xlink:href="#p" transform="matrix(1,0,0,1,840,-300) translate(48.004999999999995 62.25)"/><use xlink:href="#q" transform="matrix(1,0,0,1,840,-300) translate(107.005 62.25)"/><use xlink:href="#l" transform="matrix(1,0,0,1,840,-300) translate(42.55499999999999 83.85000000000001)"/><path d="M1000-100c0 33.14-35.82 60-80 60s-80-26.86-80-60 35.82-60 80-60 80 26.86 80 60z" stroke="#000" stroke-width="2" fill="#fff"/><use xlink:href="#v" transform="matrix(1,0,0,1,840,-160) translate(54.029999999999994 29.4)"/><use xlink:href="#w" transform="matrix(1,0,0,1,840,-160) translate(30.554999999999993 51)"/><use xlink:href="#q" transform="matrix(1,0,0,1,840,-160) translate(105.505 51)"/><use xlink:href="#p" transform="matrix(1,0,0,1,840,-160) translate(38.529999999999994 72.60000000000001)"/><use xlink:href="#q" transform="matrix(1,0,0,1,840,-160) translate(97.53 72.60000000000001)"/><use xlink:href="#l" transform="matrix(1,0,0,1,840,-160) translate(42.555 94.20000000000002)"/><path d="M521.67-570.74l304.9-335.57M521.7-570.76l-2.72 2.98" stroke="#000" stroke-width="2" fill="none"/><path d="M836.82-917.6l-6.16 13.67-6.86-6.23z" stroke="#000" stroke-width="2"/><path d="M521.86-569.85L823.13-750.5M521.88-569.86l-3.45 2.07" stroke="#000" stroke-width="2" fill="none"/><path d="M836.22-758.34l-9.85 11.32-4.76-7.96z" stroke="#000" stroke-width="2"/><path d="M1398.1-581.55l-380.22-170.87M1398.06-581.56l3.68 1.65" stroke="#000" stroke-width="2" fill="none"/><path d="M1003.95-758.67l14.9 1.62-3.8 8.45z" stroke="#000" stroke-width="2"/><path d="M1398.24-581.78L1015.1-908M1398.22-581.8l3.06 2.6" stroke="#000" stroke-width="2" fill="none"/><path d="M1003.46-917.9l13.87 5.72-6 7.06z" stroke="#000" stroke-width="2"/><path d="M1398.1-580.72l-380.26 173.06M1398.07-580.7l3.66-1.68" stroke="#000" stroke-width="2" fill="none"/><path d="M1003.95-401.34l11.06-10.13 3.85 8.44z" stroke="#000" stroke-width="2"/><path d="M1398.36-580.37l-385.57 466.1M1398.35-580.35l2.56-3.1" stroke="#000" stroke-width="2" fill="none"/><path d="M1003.06-102.5l5.52-13.94 7.15 5.9z" stroke="#000" stroke-width="2"/><path d="M521.7-569.28l304.46 315.96M521.7-569.26l-2.78-2.9" stroke="#000" stroke-width="2" fill="none"/><path d="M836.75-242.33l-13.23-7.06 6.67-6.42z" stroke="#000" stroke-width="2"/><path d="M820.5-570H523.16" stroke="#000" stroke-width="2" fill="none"/><path d="M835.76-570l-14.26 4.64v-9.28z" stroke="#000" stroke-width="2"/><path d="M522.24-569.05v-1.03" stroke="#000" stroke-width="2" fill="none"/><path d="M760-1060h320V0H760z" stroke="#000" stroke-width="2" fill-opacity="0"/><g><use xlink:href="#x" transform="matrix(1,0,0,1,768,-1052) translate(14.866666666666674 21.511111111111106)"/><use xlink:href="#y" transform="matrix(1,0,0,1,768,-1052) translate(160.96296296296296 21.511111111111106)"/><use xlink:href="#z" transform="matrix(1,0,0,1,768,-1052) translate(257.83765432098767 21.511111111111106)"/><use xlink:href="#A" transform="matrix(1,0,0,1,768,-1052) translate(82.6490740740741 53.777777777777764)"/></g><path d="M540-1240h800v146.8H540z" stroke="#000" stroke-opacity="0" stroke-width="2" fill="#fff" fill-opacity="0"/><g><use xlink:href="#B" transform="matrix(1,0,0,1,545,-1235) translate(49.141666666667106 49.62916666666661)"/><use xlink:href="#C" transform="matrix(1,0,0,1,545,-1235) translate(296.9675925925927 49.62916666666661)"/><use xlink:href="#D" transform="matrix(1,0,0,1,545,-1235) translate(370.97314814814814 49.62916666666661)"/><use xlink:href="#E" transform="matrix(1,0,0,1,545,-1235) translate(538.947222222222 49.62916666666661)"/><use xlink:href="#F" transform="matrix(1,0,0,1,545,-1235) translate(612.9527777777774 49.62916666666661)"/><use xlink:href="#G" transform="matrix(1,0,0,1,545,-1235) translate(723.8898148148144 49.62916666666661)"/><use xlink:href="#H" transform="matrix(1,0,0,1,545,-1235) translate(124.50185185185222 111.22916666666654)"/><use xlink:href="#I" transform="matrix(1,0,0,1,545,-1235) translate(431.93148148148146 111.22916666666654)"/></g><defs><path d="M212-179c-10-28-35-45-73-45-59 0-87 40-87 99 0 60 29 101 89 101 43 0 62-24 78-52l27 14C228-24 195 4 139 4 59 4 22-46 18-125c-6-104 99-153 187-111 19 9 31 26 39 46" id="J"/><path d="M100-194c62-1 85 37 85 99 1 63-27 99-86 99S16-35 15-95c0-66 28-99 85-99zM99-20c44 1 53-31 53-75 0-43-8-75-51-75s-53 32-53 75 10 74 51 75" id="K"/><path d="M117-194c89-4 53 116 60 194h-32v-121c0-31-8-49-39-48C34-167 62-67 57 0H25l-1-190h30c1 10-1 24 2 32 11-22 29-35 61-36" id="L"/><path d="M85-194c31 0 48 13 60 33l-1-100h32l1 261h-30c-2-10 0-23-3-31C134-8 116 4 85 4 32 4 16-35 15-94c0-66 23-100 70-100zm9 24c-40 0-46 34-46 75 0 40 6 74 45 74 42 0 51-32 51-76 0-42-9-74-50-73" id="M"/><path d="M84 4C-5 8 30-112 23-190h32v120c0 31 7 50 39 49 72-2 45-101 50-169h31l1 190h-30c-1-10 1-25-2-33-11 22-28 36-60 37" id="N"/><path d="M96-169c-40 0-48 33-48 73s9 75 48 75c24 0 41-14 43-38l32 2c-6 37-31 61-74 61-59 0-76-41-82-99-10-93 101-131 147-64 4 7 5 14 7 22l-32 3c-4-21-16-35-41-35" id="O"/><path d="M24-231v-30h32v30H24zM24 0v-190h32V0H24" id="P"/><path d="M114-163C36-179 61-72 57 0H25l-1-190h30c1 12-1 29 2 39 6-27 23-49 58-41v29" id="Q"/><g id="a"><use transform="matrix(0.05,0,0,0.05,0,0)" xlink:href="#J"/><use transform="matrix(0.05,0,0,0.05,12.950000000000001,0)" xlink:href="#K"/><use transform="matrix(0.05,0,0,0.05,22.950000000000003,0)" xlink:href="#L"/><use transform="matrix(0.05,0,0,0.05,32.95,0)" xlink:href="#M"/><use transform="matrix(0.05,0,0,0.05,42.95,0)" xlink:href="#N"/><use transform="matrix(0.05,0,0,0.05,52.95,0)" xlink:href="#O"/><use transform="matrix(0.05,0,0,0.05,61.95,0)" xlink:href="#P"/><use transform="matrix(0.05,0,0,0.05,65.9,0)" xlink:href="#Q"/></g><path d="M59-47c-2 24 18 29 38 22v24C64 9 27 4 27-40v-127H5v-23h24l9-43h21v43h35v23H59v120" id="R"/><g id="b"><use transform="matrix(0.05,0,0,0.05,0,0)" xlink:href="#J"/><use transform="matrix(0.05,0,0,0.05,12.950000000000001,0)" xlink:href="#K"/><use transform="matrix(0.05,0,0,0.05,22.950000000000003,0)" xlink:href="#L"/><use transform="matrix(0.05,0,0,0.05,32.95,0)" xlink:href="#M"/><use transform="matrix(0.05,0,0,0.05,42.95,0)" xlink:href="#N"/><use transform="matrix(0.05,0,0,0.05,52.95,0)" xlink:href="#O"/><use transform="matrix(0.05,0,0,0.05,61.95,0)" xlink:href="#R"/><use transform="matrix(0.05,0,0,0.05,66.95,0)" xlink:href="#K"/><use transform="matrix(0.05,0,0,0.05,76.95,0)" xlink:href="#Q"/></g><path d="M135-143c-3-34-86-38-87 0 15 53 115 12 119 90S17 21 10-45l28-5c4 36 97 45 98 0-10-56-113-15-118-90-4-57 82-63 122-42 12 7 21 19 24 35" id="S"/><g id="c"><use transform="matrix(0.05,0,0,0.05,0,0)" xlink:href="#S"/><use transform="matrix(0.05,0,0,0.05,9,0)" xlink:href="#P"/><use transform="matrix(0.05,0,0,0.05,12.949999999999998,0)" xlink:href="#L"/></g><path d="M115-194c55 1 70 41 70 98S169 2 115 4C84 4 66-9 55-30l1 105H24l-1-265h31l2 30c10-21 28-34 59-34zm-8 174c40 0 45-34 45-75s-6-73-45-74c-42 0-51 32-51 76 0 43 10 73 51 73" id="T"/><path d="M115-194c53 0 69 39 70 98 0 66-23 100-70 100C84 3 66-7 56-30L54 0H23l1-261h32v101c10-23 28-34 59-34zm-8 174c40 0 45-34 45-75 0-40-5-75-45-74-42 0-51 32-51 76 0 43 10 73 51 73" id="U"/><path d="M24 0v-261h32V0H24" id="V"/><path d="M100-194c63 0 86 42 84 106H49c0 40 14 67 53 68 26 1 43-12 49-29l28 8c-11 28-37 45-77 45C44 4 14-33 15-96c1-61 26-98 85-98zm52 81c6-60-76-77-97-28-3 7-6 17-6 28h103" id="W"/><path d="M210-169c-67 3-38 105-44 169h-31v-121c0-29-5-50-35-48C34-165 62-65 56 0H25l-1-190h30c1 10-1 24 2 32 10-44 99-50 107 0 11-21 27-35 58-36 85-2 47 119 55 194h-31v-121c0-29-5-49-35-48" id="X"/><path d="M141-36C126-15 110 5 73 4 37 3 15-17 15-53c-1-64 63-63 125-63 3-35-9-54-41-54-24 1-41 7-42 31l-33-3c5-37 33-52 76-52 45 0 72 20 72 64v82c-1 20 7 32 28 27v20c-31 9-61-2-59-35zM48-53c0 20 12 33 32 33 41-3 63-29 60-74-43 2-92-5-92 41" id="Y"/><g id="d"><use transform="matrix(0.05,0,0,0.05,0,0)" xlink:href="#T"/><use transform="matrix(0.05,0,0,0.05,10,0)" xlink:href="#Q"/><use transform="matrix(0.05,0,0,0.05,15.949999999999998,0)" xlink:href="#K"/><use transform="matrix(0.05,0,0,0.05,25.950000000000003,0)" xlink:href="#U"/><use transform="matrix(0.05,0,0,0.05,35.95,0)" xlink:href="#V"/><use transform="matrix(0.05,0,0,0.05,39.900000000000006,0)" xlink:href="#W"/><use transform="matrix(0.05,0,0,0.05,49.900000000000006,0)" xlink:href="#X"/><use transform="matrix(0.05,0,0,0.05,64.85000000000001,0)" xlink:href="#Y"/><use transform="matrix(0.05,0,0,0.05,74.85000000000001,0)" xlink:href="#S"/></g><g id="e"><use transform="matrix(0.05,0,0,0.05,0,0)" xlink:href="#M"/><use transform="matrix(0.05,0,0,0.05,10,0)" xlink:href="#W"/></g><g id="f"><use transform="matrix(0.05,0,0,0.05,0,0)" xlink:href="#S"/><use transform="matrix(0.05,0,0,0.05,9,0)" xlink:href="#Y"/><use transform="matrix(0.05,0,0,0.05,19,0)" xlink:href="#V"/><use transform="matrix(0.05,0,0,0.05,22.95,0)" xlink:href="#N"/><use transform="matrix(0.05,0,0,0.05,32.95,0)" xlink:href="#M"/></g><path d="M108 0H70L1-190h34L89-25l56-165h34" id="Z"/><g id="g"><use transform="matrix(0.05,0,0,0.05,0,0)" xlink:href="#Z"/><use transform="matrix(0.05,0,0,0.05,9,0)" xlink:href="#P"/><use transform="matrix(0.05,0,0,0.05,12.949999999999998,0)" xlink:href="#S"/><use transform="matrix(0.05,0,0,0.05,21.95,0)" xlink:href="#N"/><use transform="matrix(0.05,0,0,0.05,31.950000000000003,0)" xlink:href="#Y"/><use transform="matrix(0.05,0,0,0.05,41.95,0)" xlink:href="#V"/></g><g id="h"><use transform="matrix(0.05,0,0,0.05,0,0)" xlink:href="#O"/><use transform="matrix(0.05,0,0,0.05,9,0)" xlink:href="#K"/><use transform="matrix(0.05,0,0,0.05,19,0)" xlink:href="#L"/></g><g id="i"><use transform="matrix(0.05,0,0,0.05,0,0)" xlink:href="#Z"/><use transform="matrix(0.05,0,0,0.05,9,0)" xlink:href="#P"/><use transform="matrix(0.05,0,0,0.05,12.949999999999998,0)" xlink:href="#S"/><use transform="matrix(0.05,0,0,0.05,21.95,0)" xlink:href="#N"/><use transform="matrix(0.05,0,0,0.05,31.950000000000003,0)" xlink:href="#Y"/><use transform="matrix(0.05,0,0,0.05,41.95,0)" xlink:href="#V"/><use transform="matrix(0.05,0,0,0.05,45.900000000000006,0)" xlink:href="#W"/><use transform="matrix(0.05,0,0,0.05,55.900000000000006,0)" xlink:href="#S"/></g><path d="M137 0h-34L2-248h35l83 218 83-218h36" id="aa"/><path d="M9 0v-24l116-142H16v-24h144v24L44-24h123V0H9" id="ab"/><g id="j"><use transform="matrix(0.05,0,0,0.05,0,0)" xlink:href="#aa"/><use transform="matrix(0.05,0,0,0.05,11.65,0)" xlink:href="#P"/><use transform="matrix(0.05,0,0,0.05,15.600000000000001,0)" xlink:href="#S"/><use transform="matrix(0.05,0,0,0.05,24.6,0)" xlink:href="#N"/><use transform="matrix(0.05,0,0,0.05,34.6,0)" xlink:href="#Y"/><use transform="matrix(0.05,0,0,0.05,44.6,0)" xlink:href="#V"/><use transform="matrix(0.05,0,0,0.05,48.550000000000004,0)" xlink:href="#P"/><use transform="matrix(0.05,0,0,0.05,52.5,0)" xlink:href="#ab"/><use transform="matrix(0.05,0,0,0.05,61.5,0)" xlink:href="#Y"/><use transform="matrix(0.05,0,0,0.05,71.5,0)" xlink:href="#Q"/></g><g id="k"><use transform="matrix(0.05,0,0,0.05,0,0)" xlink:href="#W"/><use transform="matrix(0.05,0,0,0.05,10,0)" xlink:href="#V"/></g><path d="M141-36C126-15 110 5 73 4 37 3 15-17 15-53c-1-64 63-63 125-63 3-35-9-54-41-54-24 1-41 7-42 31l-33-3c5-37 33-52 76-52 45 0 72 20 72 64v82c-1 20 7 32 28 27v20c-31 9-61-2-59-35zM48-53c0 20 12 33 32 33 41-3 63-29 60-74-43 2-92-5-92 41zm25-158c8-23 27-35 38-54h36v5l-58 49H73" id="ac"/><path d="M101-234c-31-9-42 10-38 44h38v23H63V0H32v-167H5v-23h27c-7-52 17-82 69-68v24" id="ad"/><g id="l"><use transform="matrix(0.05,0,0,0.05,0,0)" xlink:href="#S"/><use transform="matrix(0.05,0,0,0.05,9,0)" xlink:href="#W"/><use transform="matrix(0.05,0,0,0.05,19,0)" xlink:href="#X"/><use transform="matrix(0.05,0,0,0.05,33.95,0)" xlink:href="#ac"/><use transform="matrix(0.05,0,0,0.05,43.95,0)" xlink:href="#ad"/><use transform="matrix(0.05,0,0,0.05,48.95,0)" xlink:href="#K"/><use transform="matrix(0.05,0,0,0.05,58.95,0)" xlink:href="#Q"/><use transform="matrix(0.05,0,0,0.05,64.9,0)" xlink:href="#K"/></g><path d="M233-177c-1 41-23 64-60 70L243 0h-38l-65-103H63V0H30v-248c88 3 205-21 203 71zM63-129c60-2 137 13 137-47 0-61-80-42-137-45v92" id="ae"/><g id="m"><use transform="matrix(0.05,0,0,0.05,0,0)" xlink:href="#ae"/><use transform="matrix(0.05,0,0,0.05,12.950000000000001,0)" xlink:href="#W"/><use transform="matrix(0.05,0,0,0.05,22.950000000000003,0)" xlink:href="#O"/><use transform="matrix(0.05,0,0,0.05,31.950000000000003,0)" xlink:href="#K"/><use transform="matrix(0.05,0,0,0.05,41.95,0)" xlink:href="#L"/><use transform="matrix(0.05,0,0,0.05,51.95,0)" xlink:href="#K"/><use transform="matrix(0.05,0,0,0.05,61.95,0)" xlink:href="#O"/><use transform="matrix(0.05,0,0,0.05,70.95,0)" xlink:href="#W"/><use transform="matrix(0.05,0,0,0.05,80.95,0)" xlink:href="#Q"/></g><g id="n"><use transform="matrix(0.05,0,0,0.05,0,0)" xlink:href="#O"/><use transform="matrix(0.05,0,0,0.05,9,0)" xlink:href="#K"/><use transform="matrix(0.05,0,0,0.05,19,0)" xlink:href="#Q"/><use transform="matrix(0.05,0,0,0.05,24.95,0)" xlink:href="#Q"/><use transform="matrix(0.05,0,0,0.05,30.899999999999995,0)" xlink:href="#W"/><use transform="matrix(0.05,0,0,0.05,40.9,0)" xlink:href="#O"/><use transform="matrix(0.05,0,0,0.05,49.9,0)" xlink:href="#R"/><use transform="matrix(0.05,0,0,0.05,54.900000000000006,0)" xlink:href="#Y"/><use transform="matrix(0.05,0,0,0.05,64.9,0)" xlink:href="#X"/><use transform="matrix(0.05,0,0,0.05,79.85000000000001,0)" xlink:href="#W"/><use transform="matrix(0.05,0,0,0.05,89.85000000000001,0)" xlink:href="#L"/><use transform="matrix(0.05,0,0,0.05,99.85000000000001,0)" xlink:href="#R"/><use transform="matrix(0.05,0,0,0.05,104.85000000000001,0)" xlink:href="#W"/></g><g id="o"><use transform="matrix(0.05,0,0,0.05,0,0)" xlink:href="#W"/><use transform="matrix(0.05,0,0,0.05,10,0)" xlink:href="#V"/></g><g id="p"><use transform="matrix(0.05,0,0,0.05,0,0)" xlink:href="#W"/><use transform="matrix(0.05,0,0,0.05,10,0)" xlink:href="#S"/><use transform="matrix(0.05,0,0,0.05,19,0)" xlink:href="#R"/><use transform="matrix(0.05,0,0,0.05,24,0)" xlink:href="#Y"/><use transform="matrix(0.05,0,0,0.05,34,0)" xlink:href="#M"/><use transform="matrix(0.05,0,0,0.05,44,0)" xlink:href="#K"/></g><g id="q"><use transform="matrix(0.05,0,0,0.05,0,0)" xlink:href="#M"/><use transform="matrix(0.05,0,0,0.05,10,0)" xlink:href="#W"/><use transform="matrix(0.05,0,0,0.05,20,0)" xlink:href="#V"/></g><g id="r"><use transform="matrix(0.05,0,0,0.05,0,0)" xlink:href="#P"/><use transform="matrix(0.05,0,0,0.05,3.95,0)" xlink:href="#L"/><use transform="matrix(0.05,0,0,0.05,13.949999999999998,0)" xlink:href="#O"/><use transform="matrix(0.05,0,0,0.05,22.95,0)" xlink:href="#K"/><use transform="matrix(0.05,0,0,0.05,32.95,0)" xlink:href="#Q"/><use transform="matrix(0.05,0,0,0.05,38.900000000000006,0)" xlink:href="#Q"/><use transform="matrix(0.05,0,0,0.05,44.85000000000001,0)" xlink:href="#W"/><use transform="matrix(0.05,0,0,0.05,54.85,0)" xlink:href="#O"/><use transform="matrix(0.05,0,0,0.05,63.85,0)" xlink:href="#R"/><use transform="matrix(0.05,0,0,0.05,68.85000000000001,0)" xlink:href="#Y"/><use transform="matrix(0.05,0,0,0.05,78.85000000000001,0)" xlink:href="#X"/><use transform="matrix(0.05,0,0,0.05,93.80000000000001,0)" xlink:href="#W"/><use transform="matrix(0.05,0,0,0.05,103.80000000000001,0)" xlink:href="#L"/><use transform="matrix(0.05,0,0,0.05,113.80000000000001,0)" xlink:href="#R"/><use transform="matrix(0.05,0,0,0.05,118.80000000000001,0)" xlink:href="#W"/></g><path d="M205 0l-28-72H64L36 0H1l101-248h38L239 0h-34zm-38-99l-47-123c-12 45-31 82-46 123h93" id="af"/><g id="s"><use transform="matrix(0.05,0,0,0.05,0,0)" xlink:href="#af"/><use transform="matrix(0.05,0,0,0.05,12,0)" xlink:href="#O"/><use transform="matrix(0.05,0,0,0.05,21,0)" xlink:href="#R"/><use transform="matrix(0.05,0,0,0.05,26,0)" xlink:href="#N"/><use transform="matrix(0.05,0,0,0.05,36,0)" xlink:href="#Y"/><use transform="matrix(0.05,0,0,0.05,46,0)" xlink:href="#Q"/></g><g id="t"><use transform="matrix(0.05,0,0,0.05,0,0)" xlink:href="#Y"/><use transform="matrix(0.05,0,0,0.05,10,0)" xlink:href="#O"/><use transform="matrix(0.05,0,0,0.05,19,0)" xlink:href="#K"/><use transform="matrix(0.05,0,0,0.05,29,0)" xlink:href="#Q"/><use transform="matrix(0.05,0,0,0.05,34.95,0)" xlink:href="#M"/><use transform="matrix(0.05,0,0,0.05,44.95,0)" xlink:href="#W"/></g><g id="u"><use transform="matrix(0.05,0,0,0.05,0,0)" xlink:href="#Y"/><use transform="matrix(0.05,0,0,0.05,10,0)" xlink:href="#V"/></g><g id="v"><use transform="matrix(0.05,0,0,0.05,0,0)" xlink:href="#af"/><use transform="matrix(0.05,0,0,0.05,12,0)" xlink:href="#O"/><use transform="matrix(0.05,0,0,0.05,21,0)" xlink:href="#R"/><use transform="matrix(0.05,0,0,0.05,26,0)" xlink:href="#N"/><use transform="matrix(0.05,0,0,0.05,36,0)" xlink:href="#Y"/><use transform="matrix(0.05,0,0,0.05,46,0)" xlink:href="#Q"/></g><g id="w"><use transform="matrix(0.05,0,0,0.05,0,0)" xlink:href="#W"/><use transform="matrix(0.05,0,0,0.05,10,0)" xlink:href="#L"/><use transform="matrix(0.05,0,0,0.05,20,0)" xlink:href="#O"/><use transform="matrix(0.05,0,0,0.05,29,0)" xlink:href="#K"/><use transform="matrix(0.05,0,0,0.05,39,0)" xlink:href="#L"/><use transform="matrix(0.05,0,0,0.05,49,0)" xlink:href="#R"/><use transform="matrix(0.05,0,0,0.05,54,0)" xlink:href="#Q"/><use transform="matrix(0.05,0,0,0.05,59.95,0)" xlink:href="#Y"/></g><path d="M240-174c0 40-23 61-54 70L253 0h-59l-57-94H76V0H24v-248c93 4 217-23 216 74zM76-134c48-2 112 12 112-38 0-48-66-32-112-35v73" id="ag"/><path d="M185-48c-13 30-37 53-82 52C43 2 14-33 14-96s30-98 90-98c62 0 83 45 84 108H66c0 31 8 55 39 56 18 0 30-7 34-22zm-45-69c5-46-57-63-70-21-2 6-4 13-4 21h74" id="ah"/><path d="M190-63c-7 42-38 67-86 67-59 0-84-38-90-98-12-110 154-137 174-36l-49 2c-2-19-15-32-35-32-30 0-35 28-38 64-6 74 65 87 74 30" id="ai"/><path d="M110-194c64 0 96 36 96 99 0 64-35 99-97 99-61 0-95-36-95-99 0-62 34-99 96-99zm-1 164c35 0 45-28 45-65 0-40-10-65-43-65-34 0-45 26-45 65 0 36 10 65 43 65" id="aj"/><path d="M135-194c87-1 58 113 63 194h-50c-7-57 23-157-34-157-59 0-34 97-39 157H25l-1-190h47c2 12-1 28 3 38 12-26 28-41 61-42" id="ak"/><path d="M135-150c-39-12-60 13-60 57V0H25l-1-190h47c2 13-1 29 3 40 6-28 27-53 61-41v41" id="al"/><g id="x"><use transform="matrix(0.07469135802469135,0,0,0.07469135802469135,0,0)" xlink:href="#ag"/><use transform="matrix(0.07469135802469135,0,0,0.07469135802469135,19.34506172839506,0)" xlink:href="#ah"/><use transform="matrix(0.07469135802469135,0,0,0.07469135802469135,34.28333333333333,0)" xlink:href="#ai"/><use transform="matrix(0.07469135802469135,0,0,0.07469135802469135,49.2216049382716,0)" xlink:href="#aj"/><use transform="matrix(0.07469135802469135,0,0,0.07469135802469135,65.579012345679,0)" xlink:href="#ak"/><use transform="matrix(0.07469135802469135,0,0,0.07469135802469135,81.93641975308641,0)" xlink:href="#aj"/><use transform="matrix(0.07469135802469135,0,0,0.07469135802469135,98.29382716049383,0)" xlink:href="#ai"/><use transform="matrix(0.07469135802469135,0,0,0.07469135802469135,113.23209876543208,0)" xlink:href="#ah"/><use transform="matrix(0.07469135802469135,0,0,0.07469135802469135,128.17037037037036,0)" xlink:href="#al"/></g><path d="M24 0v-248h195v40H76v63h132v40H76v65h150V0H24" id="am"/><path d="M137-138c1-29-70-34-71-4 15 46 118 7 119 86 1 83-164 76-172 9l43-7c4 19 20 25 44 25 33 8 57-30 24-41C81-84 22-81 20-136c-2-80 154-74 161-7" id="an"/><path d="M115-3C79 11 28 4 28-45v-112H4v-33h27l15-45h31v45h36v33H77v99c-1 23 16 31 38 25v30" id="ao"/><path d="M133-34C117-15 103 5 69 4 32 3 11-16 11-54c-1-60 55-63 116-61 1-26-3-47-28-47-18 1-26 9-28 27l-52-2c7-38 36-58 82-57s74 22 75 68l1 82c-1 14 12 18 25 15v27c-30 8-71 5-69-32zm-48 3c29 0 43-24 42-57-32 0-66-3-65 30 0 17 8 27 23 27" id="ap"/><path d="M88-194c31-1 46 15 58 34l-1-101h50l1 261h-48c-2-10 0-23-3-31C134-8 116 4 84 4 32 4 16-41 15-95c0-56 19-97 73-99zm17 164c33 0 40-30 41-66 1-37-9-64-41-64s-38 30-39 65c0 43 13 65 39 65" id="aq"/><g id="y"><use transform="matrix(0.07469135802469135,0,0,0.07469135802469135,0,0)" xlink:href="#am"/><use transform="matrix(0.07469135802469135,0,0,0.07469135802469135,17.925925925925924,0)" xlink:href="#an"/><use transform="matrix(0.07469135802469135,0,0,0.07469135802469135,32.86419753086419,0)" xlink:href="#ao"/><use transform="matrix(0.07469135802469135,0,0,0.07469135802469135,41.75246913580246,0)" xlink:href="#ap"/><use transform="matrix(0.07469135802469135,0,0,0.07469135802469135,56.69074074074072,0)" xlink:href="#aq"/><use transform="matrix(0.07469135802469135,0,0,0.07469135802469135,73.04814814814813,0)" xlink:href="#aj"/></g><g id="z"><use transform="matrix(0.07469135802469135,0,0,0.07469135802469135,0,0)" xlink:href="#aq"/><use transform="matrix(0.07469135802469135,0,0,0.07469135802469135,16.357407407407404,0)" xlink:href="#ah"/></g><path d="M169-182c-1-43-94-46-97-3 18 66 151 10 154 114 3 95-165 93-204 36-6-8-10-19-12-30l50-8c3 46 112 56 116 5-17-69-150-10-154-114-4-87 153-88 188-35 5 8 8 18 10 28" id="ar"/><path d="M220-157c-53 9-28 100-34 157h-49v-107c1-27-5-49-29-50C55-147 81-57 75 0H25l-1-190h47c2 12-1 28 3 38 10-53 101-56 108 0 13-22 24-43 59-42 82 1 51 116 57 194h-49v-107c-1-25-5-48-29-50" id="as"/><path d="M132-34C116-15 102 5 68 4 31 3 10-16 10-54c-1-60 55-63 116-61 1-26-3-47-28-47-18 1-26 9-28 27l-52-2c7-38 36-58 82-57s74 22 75 68l1 82c-1 14 12 18 25 15v27c-30 8-71 5-69-32zm-48 3c29 0 43-24 42-57-32 0-66-3-65 30 0 17 8 27 23 27zM66-208v-5l45-51h45v8l-60 48H66" id="at"/><path d="M121-226c-27-7-43 5-38 36h38v33H83V0H34v-157H6v-33h28c-9-59 32-81 87-68v32" id="au"/><g id="A"><use transform="matrix(0.07469135802469135,0,0,0.07469135802469135,0,0)" xlink:href="#ar"/><use transform="matrix(0.07469135802469135,0,0,0.07469135802469135,17.925925925925924,0)" xlink:href="#ah"/><use transform="matrix(0.07469135802469135,0,0,0.07469135802469135,32.86419753086419,0)" xlink:href="#as"/><use transform="matrix(0.07469135802469135,0,0,0.07469135802469135,56.765432098765416,0)" xlink:href="#at"/><use transform="matrix(0.07469135802469135,0,0,0.07469135802469135,71.70370370370368,0)" xlink:href="#au"/><use transform="matrix(0.07469135802469135,0,0,0.07469135802469135,80.59197530864195,0)" xlink:href="#aj"/><use transform="matrix(0.07469135802469135,0,0,0.07469135802469135,96.94938271604936,0)" xlink:href="#al"/><use transform="matrix(0.07469135802469135,0,0,0.07469135802469135,107.40617283950614,0)" xlink:href="#aj"/><use transform="matrix(0.07469135802469135,0,0,0.07469135802469135,123.76358024691355,0)" xlink:href="#an"/></g><path d="M24-248c120-7 223 5 221 122C244-46 201 0 124 0H24v-248zM76-40c74 7 117-18 117-86 0-67-45-88-117-82v168" id="av"/><path d="M25-224v-37h50v37H25zM25 0v-190h50V0H25" id="aw"/><path d="M195-6C206 82 75 100 31 46c-4-6-6-13-8-21l49-6c3 16 16 24 34 25 40 0 42-37 40-79-11 22-30 35-61 35-53 0-70-43-70-97 0-56 18-96 73-97 30 0 46 14 59 34l2-30h47zm-90-29c32 0 41-27 41-63 0-35-9-62-40-62-32 0-39 29-40 63 0 36 9 62 39 62" id="ax"/><g id="B"><use transform="matrix(0.1425925925925924,0,0,0.1425925925925924,0,0)" xlink:href="#av"/><use transform="matrix(0.1425925925925924,0,0,0.1425925925925924,36.931481481481434,0)" xlink:href="#aw"/><use transform="matrix(0.1425925925925924,0,0,0.1425925925925924,51.19074074074069,0)" xlink:href="#ap"/><use transform="matrix(0.1425925925925924,0,0,0.1425925925925924,79.70925925925917,0)" xlink:href="#ax"/><use transform="matrix(0.1425925925925924,0,0,0.1425925925925924,110.9370370370369,0)" xlink:href="#al"/><use transform="matrix(0.1425925925925924,0,0,0.1425925925925924,130.89999999999984,0)" xlink:href="#ap"/><use transform="matrix(0.1425925925925924,0,0,0.1425925925925924,159.4185185185183,0)" xlink:href="#as"/><use transform="matrix(0.1425925925925924,0,0,0.1425925925925924,205.04814814814787,0)" xlink:href="#ap"/></g><g id="C"><use transform="matrix(0.1425925925925924,0,0,0.1425925925925924,0,0)" xlink:href="#aq"/><use transform="matrix(0.1425925925925924,0,0,0.1425925925925924,31.22777777777774,0)" xlink:href="#ah"/></g><path d="M67-125c0 53 21 87 73 88 37 1 54-22 65-47l45 17C233-25 199 4 140 4 58 4 20-42 15-125 8-235 124-281 211-232c18 10 29 29 36 50l-46 12c-8-25-30-41-62-41-52 0-71 34-72 86" id="ay"/><g id="D"><use transform="matrix(0.1425925925925924,0,0,0.1425925925925924,0,0)" xlink:href="#ay"/><use transform="matrix(0.1425925925925924,0,0,0.1425925925925924,36.931481481481434,0)" xlink:href="#ap"/><use transform="matrix(0.1425925925925924,0,0,0.1425925925925924,65.44999999999992,0)" xlink:href="#an"/><use transform="matrix(0.1425925925925924,0,0,0.1425925925925924,93.96851851851841,0)" xlink:href="#aj"/><use transform="matrix(0.1425925925925924,0,0,0.1425925925925924,125.19629629629614,0)" xlink:href="#an"/></g><g id="E"><use transform="matrix(0.1425925925925924,0,0,0.1425925925925924,0,0)" xlink:href="#aq"/><use transform="matrix(0.1425925925925924,0,0,0.1425925925925924,31.22777777777774,0)" xlink:href="#ah"/></g><path d="M238-95c0 69-44 99-111 99C63 4 22-25 22-93v-155h51v151c-1 38 19 59 55 60 90 1 49-130 58-211h52v153" id="az"/><g id="F"><use transform="matrix(0.1425925925925924,0,0,0.1425925925925924,0,0)" xlink:href="#az"/><use transform="matrix(0.1425925925925924,0,0,0.1425925925925924,36.931481481481434,0)" xlink:href="#an"/><use transform="matrix(0.1425925925925924,0,0,0.1425925925925924,65.44999999999992,0)" xlink:href="#aj"/></g><path d="M14-72v-43h91v43H14" id="aA"/><use transform="matrix(0.1425925925925924,0,0,0.1425925925925924,0,0)" xlink:href="#aA" id="G"/><path d="M135-194c53 0 70 44 70 98 0 56-19 98-73 100-31 1-45-17-59-34 3 33 2 69 2 105H25l-1-265h48c2 10 0 23 3 31 11-24 29-35 60-35zM114-30c33 0 39-31 40-66 0-38-9-64-40-64-56 0-55 130 0 130" id="aB"/><path d="M110-194c64 0 96 36 96 99 0 64-35 99-97 99-61 0-95-36-95-99 0-62 34-99 96-99zm-1 164c35 0 45-28 45-65 0-40-10-65-43-65-34 0-45 26-45 65 0 36 10 65 43 65zM81-208v-5l45-51h45v8l-60 48H81" id="aC"/><g id="H"><use transform="matrix(0.1425925925925924,0,0,0.1425925925925924,0,0)" xlink:href="#av"/><use transform="matrix(0.1425925925925924,0,0,0.1425925925925924,36.931481481481434,0)" xlink:href="#ah"/><use transform="matrix(0.1425925925925924,0,0,0.1425925925925924,65.44999999999992,0)" xlink:href="#an"/><use transform="matrix(0.1425925925925924,0,0,0.1425925925925924,93.96851851851841,0)" xlink:href="#ai"/><use transform="matrix(0.1425925925925924,0,0,0.1425925925925924,122.48703703703688,0)" xlink:href="#al"/><use transform="matrix(0.1425925925925924,0,0,0.1425925925925924,142.44999999999982,0)" xlink:href="#aw"/><use transform="matrix(0.1425925925925924,0,0,0.1425925925925924,156.70925925925906,0)" xlink:href="#aB"/><use transform="matrix(0.1425925925925924,0,0,0.1425925925925924,187.9370370370368,0)" xlink:href="#ai"/><use transform="matrix(0.1425925925925924,0,0,0.1425925925925924,216.45555555555526,0)" xlink:href="#aw"/><use transform="matrix(0.1425925925925924,0,0,0.1425925925925924,230.71481481481447,0)" xlink:href="#aC"/><use transform="matrix(0.1425925925925924,0,0,0.1425925925925924,261.94259259259223,0)" xlink:href="#ak"/></g><path d="M24-248c93 1 206-16 204 79-1 75-69 88-152 82V0H24v-248zm52 121c47 0 100 7 100-41 0-47-54-39-100-39v80" id="aD"/><path d="M135-194c52 0 70 43 70 98 0 56-19 99-73 100-30 1-46-15-58-35L72 0H24l1-261h50v104c11-23 29-37 60-37zM114-30c31 0 40-27 40-66 0-37-7-63-39-63s-41 28-41 65c0 36 8 64 40 64" id="aE"/><path d="M25 0v-261h50V0H25" id="aF"/><g id="I"><use transform="matrix(0.1425925925925924,0,0,0.1425925925925924,0,0)" xlink:href="#aD"/><use transform="matrix(0.1425925925925924,0,0,0.1425925925925924,34.22222222222218,0)" xlink:href="#al"/><use transform="matrix(0.1425925925925924,0,0,0.1425925925925924,54.18518518518511,0)" xlink:href="#aj"/><use transform="matrix(0.1425925925925924,0,0,0.1425925925925924,85.41296296296287,0)" xlink:href="#aE"/><use transform="matrix(0.1425925925925924,0,0,0.1425925925925924,116.6407407407406,0)" xlink:href="#aF"/><use transform="matrix(0.1425925925925924,0,0,0.1425925925925924,130.89999999999984,0)" xlink:href="#ah"/><use transform="matrix(0.1425925925925924,0,0,0.1425925925925924,159.4185185185183,0)" xlink:href="#as"/><use transform="matrix(0.1425925925925924,0,0,0.1425925925925924,205.04814814814787,0)" xlink:href="#ap"/></g></defs></g></svg>