<svg xmlns="http://www.w3.org/2000/svg" xmlns:xlink="http://www.w3.org/1999/xlink" xmlns:lucid="lucid" width="1300" height="1380"><g transform="translate(-285.19999999999993 100)" lucid:page-tab-id="_1thc-a4tD6l"><path d="M0-1259.2h1870.4v2582.4H0z" fill="#fff"/><path d="M600 220v-40h880v40zM600 260v-40h480v40M1080 260v-40h400v40" stroke="#000" stroke-width="2" fill="#fff"/><path d="M1080 1140H600V260h480zM1480 260v880h-400V260z" stroke="#000" stroke-width="2" fill="none"/><use xlink:href="#a" transform="matrix(1,0,0,1,600,180) translate(327.125 23.6)"/><use xlink:href="#b" transform="matrix(1,0,0,1,600,180) translate(409.975 23.6)"/><use xlink:href="#c" transform="matrix(1,0,0,1,600,180) translate(468.975 23.6)"/><use xlink:href="#d" transform="matrix(1,0,0,1,600,220) translate(198.55 23.6)"/><use xlink:href="#e" transform="matrix(1,0,0,1,1080,220) translate(161.05 23.6)"/><path d="M760 100c0 11.05-8.95 20-20 20s-20-8.95-20-20 8.95-20 20-20 20 8.95 20 20z" stroke="#000" stroke-width="2"/><path d="M740 122v198.5" stroke="#000" stroke-width="2" fill="none"/><path d="M739.96 121l1.04-.03v1.06h-2v-1.15z"/><path d="M740 335.76l-4.64-14.26h9.28z" stroke="#000" stroke-width="2"/><path d="M676 340c-8.84 0-16 7.16-16 16v48c0 8.84 7.16 16 16 16h128c8.84 0 16-7.16 16-16v-48c0-8.84-7.16-16-16-16z" stroke="#000" stroke-width="2" fill="#fff"/><use xlink:href="#f" transform="matrix(1,0,0,1,668,348) translate(36.074999999999996 35.6)"/><path d="M740 422v58.5" stroke="#000" stroke-width="2" fill="none"/><path d="M741 422.03h-2V421h2z"/><path d="M740 495.76l-4.64-14.26h9.28z" stroke="#000" stroke-width="2"/><path d="M676 500c-8.84 0-16 7.16-16 16v48c0 8.84 7.16 16 16 16h128c8.84 0 16-7.16 16-16v-48c0-8.84-7.16-16-16-16z" stroke="#000" stroke-width="2" fill="#fff"/><use xlink:href="#g" transform="matrix(1,0,0,1,668,508) translate(35.05 24.799999999999997)"/><use xlink:href="#h" transform="matrix(1,0,0,1,668,508) translate(34.55 46.4)"/><path d="M822 540h318.5" stroke="#000" stroke-width="2" fill="none"/><path d="M822.03 541H821v-2h1.03z"/><path d="M1155.76 540l-14.26 4.64v-9.28z" stroke="#000" stroke-width="2"/><path d="M1176 500c-8.84 0-16 7.16-16 16v48c0 8.84 7.16 16 16 16h128c8.84 0 16-7.16 16-16v-48c0-8.84-7.16-16-16-16z" stroke="#000" stroke-width="2" fill="#fff"/><use xlink:href="#i" transform="matrix(1,0,0,1,1168,508) translate(29.099999999999994 24.799999999999997)"/><use xlink:href="#j" transform="matrix(1,0,0,1,1168,508) translate(95.9 24.799999999999997)"/><use xlink:href="#k" transform="matrix(1,0,0,1,1168,508) translate(45 46.4)"/><path d="M1240 582v98H839.5" stroke="#000" stroke-width="2" fill="none"/><path d="M1241 582.03h-2V581h2z"/><path d="M824.24 680l14.26-4.64v9.28z" stroke="#000" stroke-width="2"/><path d="M676 640c-8.84 0-16 7.16-16 16v48c0 8.84 7.16 16 16 16h128c8.84 0 16-7.16 16-16v-48c0-8.84-7.16-16-16-16z" stroke="#000" stroke-width="2" fill="#fff"/><use xlink:href="#l" transform="matrix(1,0,0,1,668,648) translate(28.549999999999997 14.4)"/><use xlink:href="#b" transform="matrix(1,0,0,1,668,648) translate(30.525 36)"/><use xlink:href="#m" transform="matrix(1,0,0,1,668,648) translate(89.525 36)"/><use xlink:href="#h" transform="matrix(1,0,0,1,668,648) translate(34.55 57.6)"/><path d="M740 800l20 20-20 20-20-20z" stroke="#000" stroke-width="2" fill="#fff"/><path d="M741 780.08h-2v-22.6h2zm0-44.2h-2V722h2z"/><path d="M741 722.03h-2V721h2zM740 795.35l-4.64-14.27h9.28z"/><path d="M740 798.6l-6-18.52h12zm-3.26-16.52L740 792.1l3.26-10.02z"/><use xlink:href="#n" transform="matrix(1,0,0,1,621.65,735.8666666666667) translate(0 14.4)"/><use xlink:href="#o" transform="matrix(1,0,0,1,621.65,735.8666666666667) translate(66.95 14.4)"/><use xlink:href="#p" transform="matrix(1,0,0,1,621.65,735.8666666666667) translate(155.8 14.4)"/><use xlink:href="#q" transform="matrix(1,0,0,1,621.65,735.8666666666667) translate(180.8 14.4)"/><path d="M741 920.5h-2v-35.03h2zm0-56.63h-2V842.4h2z"/><path d="M741 842.44h-2v-2.03l1 1 1-1zM740 935.76l-4.64-14.26h9.28z"/><path d="M740 939l-6-18.5h12zm-3.26-16.5l3.26 10.03 3.26-10.03z"/><use xlink:href="#r" transform="matrix(1,0,0,1,721.525,863.8666666666667) translate(0 14.4)"/><path d="M787.83 821H762.4v-2h25.43zm47.87 0h-20.87v-2h20.87z"/><path d="M762.44 821h-2.03l1-1-1-1h2.04zM850.96 820l-14.26 4.64v-9.28z"/><path d="M854.2 820l-18.5 6v-12zm-16.5 3.26l10.03-3.26-10.03-3.26z"/><use xlink:href="#s" transform="matrix(1,0,0,1,787.8309596196934,809.2) translate(0 14.4)"/><path d="M676 940c-8.84 0-16 7.16-16 16v48c0 8.84 7.16 16 16 16h128c8.84 0 16-7.16 16-16v-48c0-8.84-7.16-16-16-16z" stroke="#000" stroke-width="2" fill="#fff"/><use xlink:href="#t" transform="matrix(1,0,0,1,668,948) translate(6.575000000000003 14.4)"/><use xlink:href="#u" transform="matrix(1,0,0,1,668,948) translate(63.525000000000006 14.4)"/><use xlink:href="#v" transform="matrix(1,0,0,1,668,948) translate(123.47500000000001 14.4)"/><use xlink:href="#b" transform="matrix(1,0,0,1,668,948) translate(30.525 36)"/><use xlink:href="#m" transform="matrix(1,0,0,1,668,948) translate(89.525 36)"/><use xlink:href="#h" transform="matrix(1,0,0,1,668,948) translate(34.55 57.6)"/><path d="M871.2 780c-8.84 0-16 7.16-16 16v48c0 8.84 7.16 16 16 16h128c8.84 0 16-7.16 16-16v-48c0-8.84-7.16-16-16-16z" stroke="#000" stroke-width="2" fill="#fff"/><g><use xlink:href="#t" transform="matrix(1,0,0,1,863.1999999999999,788) translate(2.075000000000003 24.799999999999997)"/><use xlink:href="#w" transform="matrix(1,0,0,1,863.1999999999999,788) translate(59.025000000000006 24.799999999999997)"/><use xlink:href="#x" transform="matrix(1,0,0,1,863.1999999999999,788) translate(93.025 24.799999999999997)"/><use xlink:href="#p" transform="matrix(1,0,0,1,863.1999999999999,788) translate(21.025 46.4)"/><use xlink:href="#y" transform="matrix(1,0,0,1,863.1999999999999,788) translate(46.025 46.4)"/></g><path d="M740 1022v178.5" stroke="#000" stroke-width="2" fill="none"/><path d="M741 1022.03h-2V1021h2z"/><path d="M740 1215.76l-4.64-14.26h9.28z" stroke="#000" stroke-width="2"/><path d="M760 1240c0 11.05-8.95 20-20 20s-20-8.95-20-20 8.95-20 20-20 20 8.95 20 20z" stroke="#000" stroke-width="2" fill="#fff"/><path d="M752 1240c0 6.63-5.37 12-12 12s-12-5.37-12-12 5.37-12 12-12 12 5.37 12 12z" stroke="#000" stroke-width="2"/><path d="M936.2 1241H779.5v-2h154.7V862h2z"/><path d="M936.2 862.03h-2V861h2zM778.5 1244.64l-14.26-4.64 14.26-4.64z"/><path d="M779.5 1246l-18.5-6 18.5-6zm-12.03-6l10.03 3.26v-6.52z"/><path d="M305.2-80h1260v60h-1260z" fill="none"/><g><use xlink:href="#z" transform="matrix(1,0,0,1,305.19999999999993,-80) translate(12.392592592594156 53.511111111110985)"/><use xlink:href="#A" transform="matrix(1,0,0,1,305.19999999999993,-80) translate(335.31728395061805 53.511111111110985)"/><use xlink:href="#B" transform="matrix(1,0,0,1,305.19999999999993,-80) translate(431.7487654320993 53.511111111110985)"/><use xlink:href="#C" transform="matrix(1,0,0,1,305.19999999999993,-80) translate(824.9067901234563 53.511111111110985)"/><use xlink:href="#D" transform="matrix(1,0,0,1,305.19999999999993,-80) translate(865.597530864197 53.511111111110985)"/><use xlink:href="#E" transform="matrix(1,0,0,1,305.19999999999993,-80) translate(420.32191358024744 133.77777777777746)"/><use xlink:href="#F" transform="matrix(1,0,0,1,305.19999999999993,-80) translate(535.3336419753089 133.77777777777746)"/></g><defs><path d="M33 0v-248h34V0H33" id="G"/><path d="M85-194c31 0 48 13 60 33l-1-100h32l1 261h-30c-2-10 0-23-3-31C134-8 116 4 85 4 32 4 16-35 15-94c0-66 23-100 70-100zm9 24c-40 0-46 34-46 75 0 40 6 74 45 74 42 0 51-32 51-76 0-42-9-74-50-73" id="H"/><path d="M100-194c63 0 86 42 84 106H49c0 40 14 67 53 68 26 1 43-12 49-29l28 8c-11 28-37 45-77 45C44 4 14-33 15-96c1-61 26-98 85-98zm52 81c6-60-76-77-97-28-3 7-6 17-6 28h103" id="I"/><path d="M117-194c89-4 53 116 60 194h-32v-121c0-31-8-49-39-48C34-167 62-67 57 0H25l-1-190h30c1 10-1 24 2 32 11-22 29-35 61-36" id="J"/><path d="M59-47c-2 24 18 29 38 22v24C64 9 27 4 27-40v-127H5v-23h24l9-43h21v43h35v23H59v120" id="K"/><path d="M24-231v-30h32v30H24zM24 0v-190h32V0H24" id="L"/><path d="M101-234c-31-9-42 10-38 44h38v23H63V0H32v-167H5v-23h27c-7-52 17-82 69-68v24" id="M"/><path d="M96-169c-40 0-48 33-48 73s9 75 48 75c24 0 41-14 43-38l32 2c-6 37-31 61-74 61-59 0-76-41-82-99-10-93 101-131 147-64 4 7 5 14 7 22l-32 3c-4-21-16-35-41-35" id="N"/><path d="M141-36C126-15 110 5 73 4 37 3 15-17 15-53c-1-64 63-63 125-63 3-35-9-54-41-54-24 1-41 7-42 31l-33-3c5-37 33-52 76-52 45 0 72 20 72 64v82c-1 20 7 32 28 27v20c-31 9-61-2-59-35zM48-53c0 20 12 33 32 33 41-3 63-29 60-74-43 2-92-5-92 41" id="O"/><path d="M114-163C36-179 61-72 57 0H25l-1-190h30c1 12-1 29 2 39 6-27 23-49 58-41v29" id="P"/><g id="a"><use transform="matrix(0.05,0,0,0.05,0,0)" xlink:href="#G"/><use transform="matrix(0.05,0,0,0.05,5,0)" xlink:href="#H"/><use transform="matrix(0.05,0,0,0.05,15,0)" xlink:href="#I"/><use transform="matrix(0.05,0,0,0.05,25,0)" xlink:href="#J"/><use transform="matrix(0.05,0,0,0.05,35,0)" xlink:href="#K"/><use transform="matrix(0.05,0,0,0.05,40,0)" xlink:href="#L"/><use transform="matrix(0.05,0,0,0.05,43.95,0)" xlink:href="#M"/><use transform="matrix(0.05,0,0,0.05,48.95,0)" xlink:href="#L"/><use transform="matrix(0.05,0,0,0.05,52.900000000000006,0)" xlink:href="#N"/><use transform="matrix(0.05,0,0,0.05,61.900000000000006,0)" xlink:href="#O"/><use transform="matrix(0.05,0,0,0.05,71.9,0)" xlink:href="#P"/></g><path d="M135-143c-3-34-86-38-87 0 15 53 115 12 119 90S17 21 10-45l28-5c4 36 97 45 98 0-10-56-113-15-118-90-4-57 82-63 122-42 12 7 21 19 24 35" id="Q"/><path d="M100-194c62-1 85 37 85 99 1 63-27 99-86 99S16-35 15-95c0-66 28-99 85-99zM99-20c44 1 53-31 53-75 0-43-8-75-51-75s-53 32-53 75 10 74 51 75" id="R"/><g id="b"><use transform="matrix(0.05,0,0,0.05,0,0)" xlink:href="#I"/><use transform="matrix(0.05,0,0,0.05,10,0)" xlink:href="#Q"/><use transform="matrix(0.05,0,0,0.05,19,0)" xlink:href="#K"/><use transform="matrix(0.05,0,0,0.05,24,0)" xlink:href="#O"/><use transform="matrix(0.05,0,0,0.05,34,0)" xlink:href="#H"/><use transform="matrix(0.05,0,0,0.05,44,0)" xlink:href="#R"/></g><path d="M210-169c-67 3-38 105-44 169h-31v-121c0-29-5-50-35-48C34-165 62-65 56 0H25l-1-190h30c1 10-1 24 2 32 10-44 99-50 107 0 11-21 27-35 58-36 85-2 47 119 55 194h-31v-121c0-29-5-49-35-48" id="S"/><path d="M141-36C126-15 110 5 73 4 37 3 15-17 15-53c-1-64 63-63 125-63 3-35-9-54-41-54-24 1-41 7-42 31l-33-3c5-37 33-52 76-52 45 0 72 20 72 64v82c-1 20 7 32 28 27v20c-31 9-61-2-59-35zM48-53c0 20 12 33 32 33 41-3 63-29 60-74-43 2-92-5-92 41zm25-158c8-23 27-35 38-54h36v5l-58 49H73" id="T"/><g id="c"><use transform="matrix(0.05,0,0,0.05,0,0)" xlink:href="#Q"/><use transform="matrix(0.05,0,0,0.05,9,0)" xlink:href="#I"/><use transform="matrix(0.05,0,0,0.05,19,0)" xlink:href="#S"/><use transform="matrix(0.05,0,0,0.05,33.95,0)" xlink:href="#T"/><use transform="matrix(0.05,0,0,0.05,43.95,0)" xlink:href="#M"/><use transform="matrix(0.05,0,0,0.05,48.95,0)" xlink:href="#R"/><use transform="matrix(0.05,0,0,0.05,58.95,0)" xlink:href="#P"/><use transform="matrix(0.05,0,0,0.05,64.9,0)" xlink:href="#R"/><use transform="matrix(0.05,0,0,0.05,74.9,0)" xlink:href="#Q"/></g><path d="M212-179c-10-28-35-45-73-45-59 0-87 40-87 99 0 60 29 101 89 101 43 0 62-24 78-52l27 14C228-24 195 4 139 4 59 4 22-46 18-125c-6-104 99-153 187-111 19 9 31 26 39 46" id="U"/><path d="M84 4C-5 8 30-112 23-190h32v120c0 31 7 50 39 49 72-2 45-101 50-169h31l1 190h-30c-1-10 1-25-2-33-11 22-28 36-60 37" id="V"/><g id="d"><use transform="matrix(0.05,0,0,0.05,0,0)" xlink:href="#U"/><use transform="matrix(0.05,0,0,0.05,12.950000000000001,0)" xlink:href="#R"/><use transform="matrix(0.05,0,0,0.05,22.950000000000003,0)" xlink:href="#J"/><use transform="matrix(0.05,0,0,0.05,32.95,0)" xlink:href="#H"/><use transform="matrix(0.05,0,0,0.05,42.95,0)" xlink:href="#V"/><use transform="matrix(0.05,0,0,0.05,52.95,0)" xlink:href="#N"/><use transform="matrix(0.05,0,0,0.05,61.95,0)" xlink:href="#K"/><use transform="matrix(0.05,0,0,0.05,66.95,0)" xlink:href="#R"/><use transform="matrix(0.05,0,0,0.05,76.95,0)" xlink:href="#P"/></g><path d="M185-189c-5-48-123-54-124 2 14 75 158 14 163 119 3 78-121 87-175 55-17-10-28-26-33-46l33-7c5 56 141 63 141-1 0-78-155-14-162-118-5-82 145-84 179-34 5 7 8 16 11 25" id="W"/><g id="e"><use transform="matrix(0.05,0,0,0.05,0,0)" xlink:href="#W"/><use transform="matrix(0.05,0,0,0.05,12,0)" xlink:href="#I"/><use transform="matrix(0.05,0,0,0.05,22,0)" xlink:href="#S"/><use transform="matrix(0.05,0,0,0.05,36.95,0)" xlink:href="#T"/><use transform="matrix(0.05,0,0,0.05,46.95,0)" xlink:href="#M"/><use transform="matrix(0.05,0,0,0.05,51.95,0)" xlink:href="#R"/><use transform="matrix(0.05,0,0,0.05,61.95,0)" xlink:href="#P"/><use transform="matrix(0.05,0,0,0.05,67.9,0)" xlink:href="#R"/></g><g id="f"><use transform="matrix(0.05,0,0,0.05,0,0)" xlink:href="#U"/><use transform="matrix(0.05,0,0,0.05,12.950000000000001,0)" xlink:href="#R"/><use transform="matrix(0.05,0,0,0.05,22.950000000000003,0)" xlink:href="#J"/><use transform="matrix(0.05,0,0,0.05,32.95,0)" xlink:href="#H"/><use transform="matrix(0.05,0,0,0.05,42.95,0)" xlink:href="#V"/><use transform="matrix(0.05,0,0,0.05,52.95,0)" xlink:href="#N"/><use transform="matrix(0.05,0,0,0.05,61.95,0)" xlink:href="#L"/><use transform="matrix(0.05,0,0,0.05,65.9,0)" xlink:href="#P"/></g><path d="M140-251c81 0 123 46 123 126C263-46 219 4 140 4 59 4 17-45 17-125s42-126 123-126zm0 227c63 0 89-41 89-101s-29-99-89-99c-61 0-89 39-89 99S79-25 140-24" id="X"/><path d="M115-194c53 0 69 39 70 98 0 66-23 100-70 100C84 3 66-7 56-30L54 0H23l1-261h32v101c10-23 28-34 59-34zm-8 174c40 0 45-34 45-75 0-40-5-75-45-74-42 0-51 32-51 76 0 43 10 73 51 73" id="Y"/><path d="M108 0H70L1-190h34L89-25l56-165h34" id="Z"/><g id="g"><use transform="matrix(0.05,0,0,0.05,0,0)" xlink:href="#X"/><use transform="matrix(0.05,0,0,0.05,14,0)" xlink:href="#Y"/><use transform="matrix(0.05,0,0,0.05,24,0)" xlink:href="#Q"/><use transform="matrix(0.05,0,0,0.05,33,0)" xlink:href="#I"/><use transform="matrix(0.05,0,0,0.05,43,0)" xlink:href="#P"/><use transform="matrix(0.05,0,0,0.05,48.95,0)" xlink:href="#Z"/><use transform="matrix(0.05,0,0,0.05,57.95,0)" xlink:href="#O"/><use transform="matrix(0.05,0,0,0.05,67.95,0)" xlink:href="#P"/></g><g id="h"><use transform="matrix(0.05,0,0,0.05,0,0)" xlink:href="#Q"/><use transform="matrix(0.05,0,0,0.05,9,0)" xlink:href="#I"/><use transform="matrix(0.05,0,0,0.05,19,0)" xlink:href="#S"/><use transform="matrix(0.05,0,0,0.05,33.95,0)" xlink:href="#T"/><use transform="matrix(0.05,0,0,0.05,43.95,0)" xlink:href="#M"/><use transform="matrix(0.05,0,0,0.05,48.95,0)" xlink:href="#R"/><use transform="matrix(0.05,0,0,0.05,58.95,0)" xlink:href="#P"/><use transform="matrix(0.05,0,0,0.05,64.9,0)" xlink:href="#R"/></g><path d="M233-177c-1 41-23 64-60 70L243 0h-38l-65-103H63V0H30v-248c88 3 205-21 203 71zM63-129c60-2 137 13 137-47 0-61-80-42-137-45v92" id="aa"/><path d="M24 0v-261h32V0H24" id="ab"/><path d="M24-231v-30h32v30H24zM-9 49c24 4 33-6 33-30v-209h32V24c2 40-23 58-65 49V49" id="ac"/><g id="i"><use transform="matrix(0.05,0,0,0.05,0,0)" xlink:href="#aa"/><use transform="matrix(0.05,0,0,0.05,12.950000000000001,0)" xlink:href="#I"/><use transform="matrix(0.05,0,0,0.05,22.950000000000003,0)" xlink:href="#M"/><use transform="matrix(0.05,0,0,0.05,27.950000000000003,0)" xlink:href="#ab"/><use transform="matrix(0.05,0,0,0.05,31.900000000000002,0)" xlink:href="#I"/><use transform="matrix(0.05,0,0,0.05,41.900000000000006,0)" xlink:href="#ac"/><use transform="matrix(0.05,0,0,0.05,45.85000000000001,0)" xlink:href="#O"/><use transform="matrix(0.05,0,0,0.05,55.85,0)" xlink:href="#P"/></g><g id="j"><use transform="matrix(0.05,0,0,0.05,0,0)" xlink:href="#Q"/><use transform="matrix(0.05,0,0,0.05,9,0)" xlink:href="#V"/></g><g id="k"><use transform="matrix(0.05,0,0,0.05,0,0)" xlink:href="#I"/><use transform="matrix(0.05,0,0,0.05,10,0)" xlink:href="#Q"/><use transform="matrix(0.05,0,0,0.05,19,0)" xlink:href="#K"/><use transform="matrix(0.05,0,0,0.05,24,0)" xlink:href="#O"/><use transform="matrix(0.05,0,0,0.05,34,0)" xlink:href="#H"/><use transform="matrix(0.05,0,0,0.05,44,0)" xlink:href="#R"/></g><g id="l"><use transform="matrix(0.05,0,0,0.05,0,0)" xlink:href="#aa"/><use transform="matrix(0.05,0,0,0.05,12.950000000000001,0)" xlink:href="#I"/><use transform="matrix(0.05,0,0,0.05,22.950000000000003,0)" xlink:href="#N"/><use transform="matrix(0.05,0,0,0.05,31.950000000000003,0)" xlink:href="#R"/><use transform="matrix(0.05,0,0,0.05,41.95,0)" xlink:href="#J"/><use transform="matrix(0.05,0,0,0.05,51.95,0)" xlink:href="#R"/><use transform="matrix(0.05,0,0,0.05,61.95,0)" xlink:href="#N"/><use transform="matrix(0.05,0,0,0.05,70.95,0)" xlink:href="#I"/><use transform="matrix(0.05,0,0,0.05,80.95,0)" xlink:href="#P"/></g><g id="m"><use transform="matrix(0.05,0,0,0.05,0,0)" xlink:href="#H"/><use transform="matrix(0.05,0,0,0.05,10,0)" xlink:href="#I"/><use transform="matrix(0.05,0,0,0.05,20,0)" xlink:href="#ab"/></g><path d="M107 61C57 61 25 39 23-9c-2-65 71-58 78-115h30c1 64-76 54-76 114 0 30 21 42 52 43 32 0 53-17 56-46l32 2c-6 46-36 72-88 72zm26-251v35H99v-35h34" id="ad"/><path d="M30-248c87 1 191-15 191 75 0 78-77 80-158 76V0H30v-248zm33 125c57 0 124 11 124-50 0-59-68-47-124-48v98" id="ae"/><g id="n"><use transform="matrix(0.05,0,0,0.05,0,0)" xlink:href="#ad"/><use transform="matrix(0.05,0,0,0.05,10.950000000000001,0)" xlink:href="#ae"/><use transform="matrix(0.05,0,0,0.05,22.950000000000003,0)" xlink:href="#R"/><use transform="matrix(0.05,0,0,0.05,32.95,0)" xlink:href="#Q"/><use transform="matrix(0.05,0,0,0.05,41.95,0)" xlink:href="#I"/><use transform="matrix(0.05,0,0,0.05,51.95,0)" xlink:href="#I"/></g><path d="M115-194c55 1 70 41 70 98S169 2 115 4C84 4 66-9 55-30l1 105H24l-1-265h31l2 30c10-21 28-34 59-34zm-8 174c40 0 45-34 45-75s-6-73-45-74c-42 0-51 32-51 76 0 43 10 73 51 73" id="af"/><g id="o"><use transform="matrix(0.05,0,0,0.05,0,0)" xlink:href="#af"/><use transform="matrix(0.05,0,0,0.05,10,0)" xlink:href="#P"/><use transform="matrix(0.05,0,0,0.05,15.949999999999998,0)" xlink:href="#R"/><use transform="matrix(0.05,0,0,0.05,25.950000000000003,0)" xlink:href="#Y"/><use transform="matrix(0.05,0,0,0.05,35.95,0)" xlink:href="#ab"/><use transform="matrix(0.05,0,0,0.05,39.900000000000006,0)" xlink:href="#I"/><use transform="matrix(0.05,0,0,0.05,49.900000000000006,0)" xlink:href="#S"/><use transform="matrix(0.05,0,0,0.05,64.85000000000001,0)" xlink:href="#O"/><use transform="matrix(0.05,0,0,0.05,74.85000000000001,0)" xlink:href="#Q"/></g><g id="p"><use transform="matrix(0.05,0,0,0.05,0,0)" xlink:href="#H"/><use transform="matrix(0.05,0,0,0.05,10,0)" xlink:href="#I"/></g><path d="M100-194c62-1 85 37 85 99 1 63-27 99-86 99S16-35 15-95c0-66 28-99 85-99zM99-20c44 1 53-31 53-75 0-43-8-75-51-75s-53 32-53 75 10 74 51 75zM76-211c8-23 27-35 38-54h36v5l-58 49H76" id="ag"/><path d="M103-251c84 0 111 97 45 133-19 10-37 24-39 52H78c0-63 77-55 77-114 0-30-21-42-52-43-32 0-53 17-56 46l-32-2c7-45 34-72 88-72zM77 0v-35h34V0H77" id="ah"/><g id="q"><use transform="matrix(0.05,0,0,0.05,0,0)" xlink:href="#Z"/><use transform="matrix(0.05,0,0,0.05,9,0)" xlink:href="#L"/><use transform="matrix(0.05,0,0,0.05,12.949999999999998,0)" xlink:href="#Q"/><use transform="matrix(0.05,0,0,0.05,21.95,0)" xlink:href="#L"/><use transform="matrix(0.05,0,0,0.05,25.899999999999995,0)" xlink:href="#ag"/><use transform="matrix(0.05,0,0,0.05,35.9,0)" xlink:href="#J"/><use transform="matrix(0.05,0,0,0.05,45.9,0)" xlink:href="#ah"/></g><path d="M26 75v-336h71v23H56V52h41v23H26" id="ai"/><path d="M190 0L58-211 59 0H30v-248h39L202-35l-2-213h31V0h-41" id="aj"/><path d="M3 75V52h41v-290H3v-23h71V75H3" id="ak"/><g id="r"><use transform="matrix(0.05,0,0,0.05,0,0)" xlink:href="#ai"/><use transform="matrix(0.05,0,0,0.05,5,0)" xlink:href="#aj"/><use transform="matrix(0.05,0,0,0.05,17.950000000000003,0)" xlink:href="#X"/><use transform="matrix(0.05,0,0,0.05,31.950000000000003,0)" xlink:href="#ak"/></g><g id="s"><use transform="matrix(0.05,0,0,0.05,0,0)" xlink:href="#ai"/><use transform="matrix(0.05,0,0,0.05,5,0)" xlink:href="#W"/><use transform="matrix(0.05,0,0,0.05,17,0)" xlink:href="#G"/><use transform="matrix(0.05,0,0,0.05,22,0)" xlink:href="#ak"/></g><path d="M205 0l-28-72H64L36 0H1l101-248h38L239 0h-34zm-38-99l-47-123c-12 45-31 82-46 123h93" id="al"/><g id="t"><use transform="matrix(0.05,0,0,0.05,0,0)" xlink:href="#al"/><use transform="matrix(0.05,0,0,0.05,12,0)" xlink:href="#N"/><use transform="matrix(0.05,0,0,0.05,21,0)" xlink:href="#K"/><use transform="matrix(0.05,0,0,0.05,26,0)" xlink:href="#V"/><use transform="matrix(0.05,0,0,0.05,36,0)" xlink:href="#O"/><use transform="matrix(0.05,0,0,0.05,46,0)" xlink:href="#P"/></g><g id="u"><use transform="matrix(0.05,0,0,0.05,0,0)" xlink:href="#O"/><use transform="matrix(0.05,0,0,0.05,10,0)" xlink:href="#N"/><use transform="matrix(0.05,0,0,0.05,19,0)" xlink:href="#R"/><use transform="matrix(0.05,0,0,0.05,29,0)" xlink:href="#P"/><use transform="matrix(0.05,0,0,0.05,34.95,0)" xlink:href="#H"/><use transform="matrix(0.05,0,0,0.05,44.95,0)" xlink:href="#I"/></g><g id="v"><use transform="matrix(0.05,0,0,0.05,0,0)" xlink:href="#O"/><use transform="matrix(0.05,0,0,0.05,10,0)" xlink:href="#ab"/></g><g id="w"><use transform="matrix(0.05,0,0,0.05,0,0)" xlink:href="#N"/><use transform="matrix(0.05,0,0,0.05,9,0)" xlink:href="#R"/><use transform="matrix(0.05,0,0,0.05,19,0)" xlink:href="#J"/></g><path d="M177-190C167-65 218 103 67 71c-23-6-38-20-44-43l32-5c15 47 100 32 89-28v-30C133-14 115 1 83 1 29 1 15-40 15-95c0-56 16-97 71-98 29-1 48 16 59 35 1-10 0-23 2-32h30zM94-22c36 0 50-32 50-73 0-42-14-75-50-75-39 0-46 34-46 75s6 73 46 73" id="am"/><g id="x"><use transform="matrix(0.05,0,0,0.05,0,0)" xlink:href="#P"/><use transform="matrix(0.05,0,0,0.05,5.95,0)" xlink:href="#L"/><use transform="matrix(0.05,0,0,0.05,9.9,0)" xlink:href="#I"/><use transform="matrix(0.05,0,0,0.05,19.9,0)" xlink:href="#Q"/><use transform="matrix(0.05,0,0,0.05,28.899999999999995,0)" xlink:href="#am"/><use transform="matrix(0.05,0,0,0.05,38.9,0)" xlink:href="#R"/></g><g id="y"><use transform="matrix(0.05,0,0,0.05,0,0)" xlink:href="#O"/><use transform="matrix(0.05,0,0,0.05,10,0)" xlink:href="#N"/><use transform="matrix(0.05,0,0,0.05,19,0)" xlink:href="#N"/><use transform="matrix(0.05,0,0,0.05,28,0)" xlink:href="#L"/><use transform="matrix(0.05,0,0,0.05,31.950000000000003,0)" xlink:href="#H"/><use transform="matrix(0.05,0,0,0.05,41.95,0)" xlink:href="#I"/><use transform="matrix(0.05,0,0,0.05,51.95,0)" xlink:href="#J"/><use transform="matrix(0.05,0,0,0.05,61.95,0)" xlink:href="#K"/><use transform="matrix(0.05,0,0,0.05,66.95,0)" xlink:href="#I"/></g><path d="M24-248c120-7 223 5 221 122C244-46 201 0 124 0H24v-248zM76-40c74 7 117-18 117-86 0-67-45-88-117-82v168" id="an"/><path d="M25-224v-37h50v37H25zM25 0v-190h50V0H25" id="ao"/><path d="M133-34C117-15 103 5 69 4 32 3 11-16 11-54c-1-60 55-63 116-61 1-26-3-47-28-47-18 1-26 9-28 27l-52-2c7-38 36-58 82-57s74 22 75 68l1 82c-1 14 12 18 25 15v27c-30 8-71 5-69-32zm-48 3c29 0 43-24 42-57-32 0-66-3-65 30 0 17 8 27 23 27" id="ap"/><path d="M195-6C206 82 75 100 31 46c-4-6-6-13-8-21l49-6c3 16 16 24 34 25 40 0 42-37 40-79-11 22-30 35-61 35-53 0-70-43-70-97 0-56 18-96 73-97 30 0 46 14 59 34l2-30h47zm-90-29c32 0 41-27 41-63 0-35-9-62-40-62-32 0-39 29-40 63 0 36 9 62 39 62" id="aq"/><path d="M135-150c-39-12-60 13-60 57V0H25l-1-190h47c2 13-1 29 3 40 6-28 27-53 61-41v41" id="ar"/><path d="M220-157c-53 9-28 100-34 157h-49v-107c1-27-5-49-29-50C55-147 81-57 75 0H25l-1-190h47c2 12-1 28 3 38 10-53 101-56 108 0 13-22 24-43 59-42 82 1 51 116 57 194h-49v-107c-1-25-5-48-29-50" id="as"/><g id="z"><use transform="matrix(0.18580246913580203,0,0,0.18580246913580203,0,0)" xlink:href="#an"/><use transform="matrix(0.18580246913580203,0,0,0.18580246913580203,48.122839506172724,0)" xlink:href="#ao"/><use transform="matrix(0.18580246913580203,0,0,0.18580246913580203,66.70308641975294,0)" xlink:href="#ap"/><use transform="matrix(0.18580246913580203,0,0,0.18580246913580203,103.86358024691334,0)" xlink:href="#aq"/><use transform="matrix(0.18580246913580203,0,0,0.18580246913580203,144.554320987654,0)" xlink:href="#ar"/><use transform="matrix(0.18580246913580203,0,0,0.18580246913580203,170.56666666666626,0)" xlink:href="#ap"/><use transform="matrix(0.18580246913580203,0,0,0.18580246913580203,207.7271604938267,0)" xlink:href="#as"/><use transform="matrix(0.18580246913580203,0,0,0.18580246913580203,267.1839506172833,0)" xlink:href="#ap"/></g><path d="M88-194c31-1 46 15 58 34l-1-101h50l1 261h-48c-2-10 0-23-3-31C134-8 116 4 84 4 32 4 16-41 15-95c0-56 19-97 73-99zm17 164c33 0 40-30 41-66 1-37-9-64-41-64s-38 30-39 65c0 43 13 65 39 65" id="at"/><path d="M185-48c-13 30-37 53-82 52C43 2 14-33 14-96s30-98 90-98c62 0 83 45 84 108H66c0 31 8 55 39 56 18 0 30-7 34-22zm-45-69c5-46-57-63-70-21-2 6-4 13-4 21h74" id="au"/><g id="A"><use transform="matrix(0.18580246913580203,0,0,0.18580246913580203,0,0)" xlink:href="#at"/><use transform="matrix(0.18580246913580203,0,0,0.18580246913580203,40.690740740740644,0)" xlink:href="#au"/></g><path d="M199 0l-22-63H83L61 0H9l90-248h61L250 0h-51zm-33-102l-36-108c-10 38-24 72-36 108h72" id="av"/><path d="M190-63c-7 42-38 67-86 67-59 0-84-38-90-98-12-110 154-137 174-36l-49 2c-2-19-15-32-35-32-30 0-35 28-38 64-6 74 65 87 74 30" id="aw"/><path d="M115-3C79 11 28 4 28-45v-112H4v-33h27l15-45h31v45h36v33H77v99c-1 23 16 31 38 25v30" id="ax"/><path d="M128 0H69L1-190h53L99-40l48-150h52" id="ay"/><path d="M137-138c1-29-70-34-71-4 15 46 118 7 119 86 1 83-164 76-172 9l43-7c4 19 20 25 44 25 33 8 57-30 24-41C81-84 22-81 20-136c-2-80 154-74 161-7" id="az"/><g id="B"><use transform="matrix(0.18580246913580203,0,0,0.18580246913580203,0,0)" xlink:href="#av"/><use transform="matrix(0.18580246913580203,0,0,0.18580246913580203,48.122839506172724,0)" xlink:href="#aw"/><use transform="matrix(0.18580246913580203,0,0,0.18580246913580203,85.28333333333313,0)" xlink:href="#ax"/><use transform="matrix(0.18580246913580203,0,0,0.18580246913580203,107.39382716049357,0)" xlink:href="#ao"/><use transform="matrix(0.18580246913580203,0,0,0.18580246913580203,125.97407407407378,0)" xlink:href="#ay"/><use transform="matrix(0.18580246913580203,0,0,0.18580246913580203,163.13456790123416,0)" xlink:href="#ao"/><use transform="matrix(0.18580246913580203,0,0,0.18580246913580203,181.71481481481436,0)" xlink:href="#at"/><use transform="matrix(0.18580246913580203,0,0,0.18580246913580203,222.405555555555,0)" xlink:href="#ap"/><use transform="matrix(0.18580246913580203,0,0,0.18580246913580203,259.5660493827154,0)" xlink:href="#at"/><use transform="matrix(0.18580246913580203,0,0,0.18580246913580203,300.256790123456,0)" xlink:href="#au"/><use transform="matrix(0.18580246913580203,0,0,0.18580246913580203,337.4172839506164,0)" xlink:href="#az"/></g><path d="M14-72v-43h91v43H14" id="aA"/><use transform="matrix(0.18580246913580203,0,0,0.18580246913580203,0,0)" xlink:href="#aA" id="C"/><path d="M135-194c53 0 70 44 70 98 0 56-19 98-73 100-31 1-45-17-59-34 3 33 2 69 2 105H25l-1-265h48c2 10 0 23 3 31 11-24 29-35 60-35zM114-30c33 0 39-31 40-66 0-38-9-64-40-64-56 0-55 130 0 130" id="aB"/><path d="M110-194c64 0 96 36 96 99 0 64-35 99-97 99-61 0-95-36-95-99 0-62 34-99 96-99zm-1 164c35 0 45-28 45-65 0-40-10-65-43-65-34 0-45 26-45 65 0 36 10 65 43 65zM81-208v-5l45-51h45v8l-60 48H81" id="aC"/><path d="M135-194c87-1 58 113 63 194h-50c-7-57 23-157-34-157-59 0-34 97-39 157H25l-1-190h47c2 12-1 28 3 38 12-26 28-41 61-42" id="aD"/><g id="D"><use transform="matrix(0.18580246913580203,0,0,0.18580246913580203,0,0)" xlink:href="#an"/><use transform="matrix(0.18580246913580203,0,0,0.18580246913580203,48.122839506172724,0)" xlink:href="#au"/><use transform="matrix(0.18580246913580203,0,0,0.18580246913580203,85.28333333333313,0)" xlink:href="#az"/><use transform="matrix(0.18580246913580203,0,0,0.18580246913580203,122.44382716049354,0)" xlink:href="#aw"/><use transform="matrix(0.18580246913580203,0,0,0.18580246913580203,159.60432098765395,0)" xlink:href="#ar"/><use transform="matrix(0.18580246913580203,0,0,0.18580246913580203,185.61666666666622,0)" xlink:href="#ao"/><use transform="matrix(0.18580246913580203,0,0,0.18580246913580203,204.19691358024645,0)" xlink:href="#aB"/><use transform="matrix(0.18580246913580203,0,0,0.18580246913580203,244.88765432098702,0)" xlink:href="#aw"/><use transform="matrix(0.18580246913580203,0,0,0.18580246913580203,282.04814814814745,0)" xlink:href="#ao"/><use transform="matrix(0.18580246913580203,0,0,0.18580246913580203,300.62839506172764,0)" xlink:href="#aC"/><use transform="matrix(0.18580246913580203,0,0,0.18580246913580203,341.3191358024683,0)" xlink:href="#aD"/></g><path d="M25 0v-261h50V0H25" id="aE"/><g id="E"><use transform="matrix(0.18580246913580203,0,0,0.18580246913580203,0,0)" xlink:href="#at"/><use transform="matrix(0.18580246913580203,0,0,0.18580246913580203,40.690740740740644,0)" xlink:href="#au"/><use transform="matrix(0.18580246913580203,0,0,0.18580246913580203,77.85123456790106,0)" xlink:href="#aE"/></g><path d="M24-248c93 1 206-16 204 79-1 75-69 88-152 82V0H24v-248zm52 121c47 0 100 7 100-41 0-47-54-39-100-39v80" id="aF"/><path d="M110-194c64 0 96 36 96 99 0 64-35 99-97 99-61 0-95-36-95-99 0-62 34-99 96-99zm-1 164c35 0 45-28 45-65 0-40-10-65-43-65-34 0-45 26-45 65 0 36 10 65 43 65" id="aG"/><path d="M135-194c52 0 70 43 70 98 0 56-19 99-73 100-30 1-46-15-58-35L72 0H24l1-261h50v104c11-23 29-37 60-37zM114-30c31 0 40-27 40-66 0-37-7-63-39-63s-41 28-41 65c0 36 8 64 40 64" id="aH"/><g id="F"><use transform="matrix(0.18580246913580203,0,0,0.18580246913580203,0,0)" xlink:href="#aF"/><use transform="matrix(0.18580246913580203,0,0,0.18580246913580203,44.59259259259249,0)" xlink:href="#ar"/><use transform="matrix(0.18580246913580203,0,0,0.18580246913580203,70.60493827160477,0)" xlink:href="#aG"/><use transform="matrix(0.18580246913580203,0,0,0.18580246913580203,111.2956790123454,0)" xlink:href="#aH"/><use transform="matrix(0.18580246913580203,0,0,0.18580246913580203,151.98641975308604,0)" xlink:href="#aE"/><use transform="matrix(0.18580246913580203,0,0,0.18580246913580203,170.56666666666624,0)" xlink:href="#au"/><use transform="matrix(0.18580246913580203,0,0,0.18580246913580203,207.7271604938267,0)" xlink:href="#as"/><use transform="matrix(0.18580246913580203,0,0,0.18580246913580203,267.1839506172833,0)" xlink:href="#ap"/></g></defs></g></svg>