<svg xmlns="http://www.w3.org/2000/svg" xmlns:xlink="http://www.w3.org/1999/xlink" xmlns:lucid="lucid" width="1460" height="1490"><g transform="translate(-240 -50)" lucid:page-tab-id="0_0"><path d="M0 0h1870.4v2582.4H0z" fill="#fff"/><path d="M1360 1380h240v60h-240z" fill="none"/><use xlink:href="#a" transform="matrix(1,0,0,1,1360,1380) translate(95.05 33.6)"/><path d="M355.2 70h1160v60h-1160z" fill="none"/><use xlink:href="#b" transform="matrix(1,0,0,1,355.19999999999993,70) translate(12.55925925926067 53.511111111110985)"/><use xlink:href="#c" transform="matrix(1,0,0,1,355.19999999999993,70) translate(335.48395061728456 53.511111111110985)"/><use xlink:href="#d" transform="matrix(1,0,0,1,355.19999999999993,70) translate(431.9154320987658 53.511111111110985)"/><use xlink:href="#e" transform="matrix(1,0,0,1,355.19999999999993,70) translate(825.0734567901228 53.511111111110985)"/><use xlink:href="#f" transform="matrix(1,0,0,1,355.19999999999993,70) translate(865.7641975308635 53.511111111110985)"/><path d="M1100 1100h240v60h-240z" fill="none"/><use xlink:href="#g" transform="matrix(1,0,0,1,1100,1100) translate(92.55 33.6)"/><path d="M440 100c0 11.05-8.95 20-20 20s-20-8.95-20-20 8.95-20 20-20 20 8.95 20 20z" stroke="#000" stroke-width="2"/><path d="M260 240v-40h1380v40zM260 280v-40h320v40M580 280v-40h320v40M900 280v-40h380v40M1280 280v-40h360v40" stroke="#000" stroke-width="2" fill="#fff"/><path d="M580 1380H260V280h320zM580 280h320v1100H580zM900 280h380v1100H900zM1640 280v1100h-360V280z" stroke="#000" stroke-width="2" fill="none"/><use xlink:href="#h" transform="matrix(1,0,0,1,260,200) translate(560.1 23.6)"/><use xlink:href="#i" transform="matrix(1,0,0,1,260,200) translate(652 23.6)"/><use xlink:href="#j" transform="matrix(1,0,0,1,260,200) translate(711 23.6)"/><use xlink:href="#k" transform="matrix(1,0,0,1,260,200) translate(736 23.6)"/><use xlink:href="#l" transform="matrix(1,0,0,1,260,240) translate(90.05 23.6)"/><use xlink:href="#j" transform="matrix(1,0,0,1,260,240) translate(158 23.6)"/><use xlink:href="#m" transform="matrix(1,0,0,1,260,240) translate(183 23.6)"/><use xlink:href="#n" transform="matrix(1,0,0,1,580,240) translate(79.625 23.6)"/><use xlink:href="#o" transform="matrix(1,0,0,1,580,240) translate(127.575 23.6)"/><use xlink:href="#n" transform="matrix(1,0,0,1,900,240) translate(116.6 23.6)"/><use xlink:href="#p" transform="matrix(1,0,0,1,900,240) translate(164.55 23.6)"/><use xlink:href="#q" transform="matrix(1,0,0,1,900,240) translate(203.5 23.6)"/><use xlink:href="#r" transform="matrix(1,0,0,1,1280,240) translate(161.525 23.6)"/><path d="M420 122v198.5" stroke="#000" stroke-width="2" fill="none"/><path d="M419.96 121l1.04-.03v1.06h-2v-1.15z"/><path d="M420 335.76l-4.64-14.26h9.28z" stroke="#000" stroke-width="2"/><path d="M356 340c-8.84 0-16 7.16-16 16v48c0 8.84 7.16 16 16 16h128c8.84 0 16-7.16 16-16v-48c0-8.84-7.16-16-16-16z" stroke="#000" stroke-width="2" fill="#fff"/><use xlink:href="#s" transform="matrix(1,0,0,1,348,348) translate(29.074999999999996 24.799999999999997)"/><use xlink:href="#t" transform="matrix(1,0,0,1,348,348) translate(33.05 46.4)"/><path d="M502 380h138.5" stroke="#000" stroke-width="2" fill="none"/><path d="M502.03 381H501v-2h1.03z"/><path d="M655.76 380l-14.26 4.64v-9.28z" stroke="#000" stroke-width="2"/><path d="M676 340c-8.84 0-16 7.16-16 16v48c0 8.84 7.16 16 16 16h128c8.84 0 16-7.16 16-16v-48c0-8.84-7.16-16-16-16z" stroke="#000" stroke-width="2" fill="#fff"/><use xlink:href="#u" transform="matrix(1,0,0,1,668,348) translate(38.525 14.4)"/><use xlink:href="#v" transform="matrix(1,0,0,1,668,348) translate(7.549999999999997 36)"/><use xlink:href="#w" transform="matrix(1,0,0,1,668,348) translate(107.45 36)"/><use xlink:href="#x" transform="matrix(1,0,0,1,668,348) translate(48.05 57.6)"/><path d="M740 422v78.5" stroke="#000" stroke-width="2" fill="none"/><path d="M741 422.03h-2V421h2z"/><path d="M740 515.76l-4.64-14.26h9.28z" stroke="#000" stroke-width="2"/><path d="M676 520c-8.84 0-16 7.16-16 16v48c0 8.84 7.16 16 16 16h128c8.84 0 16-7.16 16-16v-48c0-8.84-7.16-16-16-16z" stroke="#000" stroke-width="2" fill="#fff"/><use xlink:href="#u" transform="matrix(1,0,0,1,668,528) translate(38.525 14.4)"/><use xlink:href="#v" transform="matrix(1,0,0,1,668,528) translate(7.549999999999997 36)"/><use xlink:href="#w" transform="matrix(1,0,0,1,668,528) translate(107.45 36)"/><use xlink:href="#x" transform="matrix(1,0,0,1,668,528) translate(48.05 57.6)"/><path d="M822 557.33h168.5" stroke="#000" stroke-width="2" fill="none"/><path d="M822.03 558.33H821v-2h1.03z"/><path d="M1005.76 557.33l-14.26 4.64v-9.27z" stroke="#000" stroke-width="2"/><path d="M1026 517.33c-8.84 0-16 7.17-16 16v48c0 8.84 7.16 16 16 16h128c8.84 0 16-7.16 16-16v-48c0-8.83-7.16-16-16-16z" stroke="#000" stroke-width="2" fill="#fff"/><use xlink:href="#y" transform="matrix(1,0,0,1,1018,525.3333333333334) translate(15.099999999999994 35.6)"/><use xlink:href="#z" transform="matrix(1,0,0,1,1018,525.3333333333334) translate(77.95 35.6)"/><path d="M1090 599.33V700H839.5" stroke="#000" stroke-width="2" fill="none"/><path d="M1091 599.36h-2v-1.03h2z"/><path d="M824.24 700l14.26-4.64v9.28z" stroke="#000" stroke-width="2"/><path d="M676 660c-8.84 0-16 7.16-16 16v48c0 8.84 7.16 16 16 16h128c8.84 0 16-7.16 16-16v-48c0-8.84-7.16-16-16-16z" stroke="#000" stroke-width="2" fill="#fff"/><use xlink:href="#u" transform="matrix(1,0,0,1,668,668) translate(38.525 14.4)"/><use xlink:href="#v" transform="matrix(1,0,0,1,668,668) translate(7.549999999999997 36)"/><use xlink:href="#w" transform="matrix(1,0,0,1,668,668) translate(107.45 36)"/><use xlink:href="#x" transform="matrix(1,0,0,1,668,668) translate(48.05 57.6)"/><path d="M676 1100c-8.84 0-16 7.16-16 16v48c0 8.84 7.16 16 16 16h128c8.84 0 16-7.16 16-16v-48c0-8.84-7.16-16-16-16z" stroke="#000" stroke-width="2" fill="#fff"/><use xlink:href="#u" transform="matrix(1,0,0,1,668,1108) translate(38.525 14.4)"/><use xlink:href="#v" transform="matrix(1,0,0,1,668,1108) translate(7.549999999999997 36)"/><use xlink:href="#w" transform="matrix(1,0,0,1,668,1108) translate(107.45 36)"/><use xlink:href="#x" transform="matrix(1,0,0,1,668,1108) translate(48.05 57.6)"/><path d="M1016 1100c-8.84 0-16 7.16-16 16v48c0 8.84 7.16 16 16 16h128c8.84 0 16-7.16 16-16v-48c0-8.84-7.16-16-16-16z" stroke="#000" stroke-width="2" fill="#fff"/><use xlink:href="#y" transform="matrix(1,0,0,1,1008,1108) translate(15.099999999999994 35.6)"/><use xlink:href="#z" transform="matrix(1,0,0,1,1008,1108) translate(77.95 35.6)"/><path d="M822 1140h158.5" stroke="#000" stroke-width="2" fill="none"/><path d="M822.03 1141H821v-2h1.03z"/><path d="M995.76 1140l-14.26 4.64v-9.28z" stroke="#000" stroke-width="2"/><path d="M1376 1100c-8.84 0-16 7.16-16 16v48c0 8.84 7.16 16 16 16h128c8.84 0 16-7.16 16-16v-48c0-8.84-7.16-16-16-16z" stroke="#000" stroke-width="2" fill="#fff"/><use xlink:href="#u" transform="matrix(1,0,0,1,1368,1108) translate(38.525 14.4)"/><use xlink:href="#A" transform="matrix(1,0,0,1,1368,1108) translate(15.049999999999997 36)"/><use xlink:href="#w" transform="matrix(1,0,0,1,1368,1108) translate(99.95 36)"/><use xlink:href="#x" transform="matrix(1,0,0,1,1368,1108) translate(48.05 57.6)"/><path d="M1162 1140h178.5" stroke="#000" stroke-width="2" fill="none"/><path d="M1162.03 1141H1161v-2h1.03z"/><path d="M1355.76 1140l-14.26 4.64v-9.28z" stroke="#000" stroke-width="2"/><path d="M1440 1182v78.5" stroke="#000" stroke-width="2" fill="none"/><path d="M1441 1182.03h-2V1181h2z"/><path d="M1440 1275.76l-4.64-14.26h9.28z" stroke="#000" stroke-width="2"/><path d="M1376 1280c-8.84 0-16 7.16-16 16v48c0 8.84 7.16 16 16 16h128c8.84 0 16-7.16 16-16v-48c0-8.84-7.16-16-16-16z" stroke="#000" stroke-width="2" fill="#fff"/><g><use xlink:href="#u" transform="matrix(1,0,0,1,1368,1288) translate(38.525 14.4)"/><use xlink:href="#B" transform="matrix(1,0,0,1,1368,1288) translate(6.599999999999994 36)"/><use xlink:href="#w" transform="matrix(1,0,0,1,1368,1288) translate(108.39999999999999 36)"/><use xlink:href="#C" transform="matrix(1,0,0,1,1368,1288) translate(39.025 57.6)"/></g><path d="M1440 1362v98.5" stroke="#000" stroke-width="2" fill="none"/><path d="M1441 1362.03h-2V1361h2z"/><path d="M1440 1475.76l-4.64-14.26h9.28z" stroke="#000" stroke-width="2"/><path d="M1460 1500c0 11.05-8.95 20-20 20s-20-8.95-20-20 8.95-20 20-20 20 8.95 20 20z" stroke="#000" stroke-width="2" fill="#fff"/><path d="M1452 1500c0 6.63-5.37 12-12 12s-12-5.37-12-12 5.37-12 12-12 12 5.37 12 12z" stroke="#000" stroke-width="2"/><path d="M1522 1119.56h58V1156h-40.5" stroke="#000" stroke-width="2" fill="none"/><path d="M1522.03 1120.56H1521v-2h1.03z"/><path d="M1524.24 1156l14.26-4.64v9.28z" stroke="#000" stroke-width="2"/><path d="M1440 1080h240v60h-240z" fill="none"/><g><use xlink:href="#D" transform="matrix(1,0,0,1,1440,1080) translate(88.05 33.6)"/></g><path d="M676 820c-8.84 0-16 7.16-16 16v48c0 8.84 7.16 16 16 16h128c8.84 0 16-7.16 16-16v-48c0-8.84-7.16-16-16-16z" stroke="#000" stroke-width="2" fill="#fff"/><g><use xlink:href="#u" transform="matrix(1,0,0,1,668,828) translate(38.525 14.4)"/><use xlink:href="#v" transform="matrix(1,0,0,1,668,828) translate(7.549999999999997 36)"/><use xlink:href="#w" transform="matrix(1,0,0,1,668,828) translate(107.45 36)"/><use xlink:href="#x" transform="matrix(1,0,0,1,668,828) translate(48.05 57.6)"/></g><path d="M740 742v58.5" stroke="#000" stroke-width="2" fill="none"/><path d="M741 742.03h-2V741h2z"/><path d="M740 815.76l-4.64-14.26h9.28z" stroke="#000" stroke-width="2"/><path d="M1026 820c-8.84 0-16 7.16-16 16v48c0 8.84 7.16 16 16 16h128c8.84 0 16-7.16 16-16v-48c0-8.84-7.16-16-16-16z" stroke="#000" stroke-width="2" fill="#fff"/><g><use xlink:href="#y" transform="matrix(1,0,0,1,1018,828) translate(15.099999999999994 35.6)"/><use xlink:href="#z" transform="matrix(1,0,0,1,1018,828) translate(77.95 35.6)"/></g><path d="M822 860h168.5" stroke="#000" stroke-width="2" fill="none"/><path d="M822.03 861H821v-2h1.03z"/><path d="M1005.76 860l-14.26 4.64v-9.28z" stroke="#000" stroke-width="2"/><path d="M676 960c-8.84 0-16 7.16-16 16v48c0 8.84 7.16 16 16 16h128c8.84 0 16-7.16 16-16v-48c0-8.84-7.16-16-16-16z" stroke="#000" stroke-width="2" fill="#fff"/><g><use xlink:href="#u" transform="matrix(1,0,0,1,668,968) translate(38.525 14.4)"/><use xlink:href="#v" transform="matrix(1,0,0,1,668,968) translate(7.549999999999997 36)"/><use xlink:href="#w" transform="matrix(1,0,0,1,668,968) translate(107.45 36)"/><use xlink:href="#x" transform="matrix(1,0,0,1,668,968) translate(48.05 57.6)"/></g><path d="M1090 902v98H839.5" stroke="#000" stroke-width="2" fill="none"/><path d="M1091 902.03h-2V901h2z"/><path d="M824.24 1000l14.26-4.64v9.28z" stroke="#000" stroke-width="2"/><defs><path d="M185-189c-5-48-123-54-124 2 14 75 158 14 163 119 3 78-121 87-175 55-17-10-28-26-33-46l33-7c5 56 141 63 141-1 0-78-155-14-162-118-5-82 145-84 179-34 5 7 8 16 11 25" id="E"/><path d="M141-36C126-15 110 5 73 4 37 3 15-17 15-53c-1-64 63-63 125-63 3-35-9-54-41-54-24 1-41 7-42 31l-33-3c5-37 33-52 76-52 45 0 72 20 72 64v82c-1 20 7 32 28 27v20c-31 9-61-2-59-35zM48-53c0 20 12 33 32 33 41-3 63-29 60-74-43 2-92-5-92 41" id="F"/><path d="M24 0v-261h32V0H24" id="G"/><path d="M24-231v-30h32v30H24zM24 0v-190h32V0H24" id="H"/><path d="M85-194c31 0 48 13 60 33l-1-100h32l1 261h-30c-2-10 0-23-3-31C134-8 116 4 85 4 32 4 16-35 15-94c0-66 23-100 70-100zm9 24c-40 0-46 34-46 75 0 40 6 74 45 74 42 0 51-32 51-76 0-42-9-74-50-73" id="I"/><g id="a"><use transform="matrix(0.05,0,0,0.05,0,0)" xlink:href="#E"/><use transform="matrix(0.05,0,0,0.05,12,0)" xlink:href="#F"/><use transform="matrix(0.05,0,0,0.05,22,0)" xlink:href="#G"/><use transform="matrix(0.05,0,0,0.05,25.950000000000003,0)" xlink:href="#H"/><use transform="matrix(0.05,0,0,0.05,29.899999999999995,0)" xlink:href="#I"/><use transform="matrix(0.05,0,0,0.05,39.9,0)" xlink:href="#F"/></g><path d="M24-248c120-7 223 5 221 122C244-46 201 0 124 0H24v-248zM76-40c74 7 117-18 117-86 0-67-45-88-117-82v168" id="J"/><path d="M25-224v-37h50v37H25zM25 0v-190h50V0H25" id="K"/><path d="M133-34C117-15 103 5 69 4 32 3 11-16 11-54c-1-60 55-63 116-61 1-26-3-47-28-47-18 1-26 9-28 27l-52-2c7-38 36-58 82-57s74 22 75 68l1 82c-1 14 12 18 25 15v27c-30 8-71 5-69-32zm-48 3c29 0 43-24 42-57-32 0-66-3-65 30 0 17 8 27 23 27" id="L"/><path d="M195-6C206 82 75 100 31 46c-4-6-6-13-8-21l49-6c3 16 16 24 34 25 40 0 42-37 40-79-11 22-30 35-61 35-53 0-70-43-70-97 0-56 18-96 73-97 30 0 46 14 59 34l2-30h47zm-90-29c32 0 41-27 41-63 0-35-9-62-40-62-32 0-39 29-40 63 0 36 9 62 39 62" id="M"/><path d="M135-150c-39-12-60 13-60 57V0H25l-1-190h47c2 13-1 29 3 40 6-28 27-53 61-41v41" id="N"/><path d="M220-157c-53 9-28 100-34 157h-49v-107c1-27-5-49-29-50C55-147 81-57 75 0H25l-1-190h47c2 12-1 28 3 38 10-53 101-56 108 0 13-22 24-43 59-42 82 1 51 116 57 194h-49v-107c-1-25-5-48-29-50" id="O"/><g id="b"><use transform="matrix(0.18580246913580203,0,0,0.18580246913580203,0,0)" xlink:href="#J"/><use transform="matrix(0.18580246913580203,0,0,0.18580246913580203,48.122839506172724,0)" xlink:href="#K"/><use transform="matrix(0.18580246913580203,0,0,0.18580246913580203,66.70308641975294,0)" xlink:href="#L"/><use transform="matrix(0.18580246913580203,0,0,0.18580246913580203,103.86358024691334,0)" xlink:href="#M"/><use transform="matrix(0.18580246913580203,0,0,0.18580246913580203,144.554320987654,0)" xlink:href="#N"/><use transform="matrix(0.18580246913580203,0,0,0.18580246913580203,170.56666666666626,0)" xlink:href="#L"/><use transform="matrix(0.18580246913580203,0,0,0.18580246913580203,207.7271604938267,0)" xlink:href="#O"/><use transform="matrix(0.18580246913580203,0,0,0.18580246913580203,267.1839506172833,0)" xlink:href="#L"/></g><path d="M88-194c31-1 46 15 58 34l-1-101h50l1 261h-48c-2-10 0-23-3-31C134-8 116 4 84 4 32 4 16-41 15-95c0-56 19-97 73-99zm17 164c33 0 40-30 41-66 1-37-9-64-41-64s-38 30-39 65c0 43 13 65 39 65" id="P"/><path d="M185-48c-13 30-37 53-82 52C43 2 14-33 14-96s30-98 90-98c62 0 83 45 84 108H66c0 31 8 55 39 56 18 0 30-7 34-22zm-45-69c5-46-57-63-70-21-2 6-4 13-4 21h74" id="Q"/><g id="c"><use transform="matrix(0.18580246913580203,0,0,0.18580246913580203,0,0)" xlink:href="#P"/><use transform="matrix(0.18580246913580203,0,0,0.18580246913580203,40.690740740740644,0)" xlink:href="#Q"/></g><path d="M199 0l-22-63H83L61 0H9l90-248h61L250 0h-51zm-33-102l-36-108c-10 38-24 72-36 108h72" id="R"/><path d="M190-63c-7 42-38 67-86 67-59 0-84-38-90-98-12-110 154-137 174-36l-49 2c-2-19-15-32-35-32-30 0-35 28-38 64-6 74 65 87 74 30" id="S"/><path d="M115-3C79 11 28 4 28-45v-112H4v-33h27l15-45h31v45h36v33H77v99c-1 23 16 31 38 25v30" id="T"/><path d="M128 0H69L1-190h53L99-40l48-150h52" id="U"/><path d="M137-138c1-29-70-34-71-4 15 46 118 7 119 86 1 83-164 76-172 9l43-7c4 19 20 25 44 25 33 8 57-30 24-41C81-84 22-81 20-136c-2-80 154-74 161-7" id="V"/><g id="d"><use transform="matrix(0.18580246913580203,0,0,0.18580246913580203,0,0)" xlink:href="#R"/><use transform="matrix(0.18580246913580203,0,0,0.18580246913580203,48.122839506172724,0)" xlink:href="#S"/><use transform="matrix(0.18580246913580203,0,0,0.18580246913580203,85.28333333333313,0)" xlink:href="#T"/><use transform="matrix(0.18580246913580203,0,0,0.18580246913580203,107.39382716049357,0)" xlink:href="#K"/><use transform="matrix(0.18580246913580203,0,0,0.18580246913580203,125.97407407407378,0)" xlink:href="#U"/><use transform="matrix(0.18580246913580203,0,0,0.18580246913580203,163.13456790123416,0)" xlink:href="#K"/><use transform="matrix(0.18580246913580203,0,0,0.18580246913580203,181.71481481481436,0)" xlink:href="#P"/><use transform="matrix(0.18580246913580203,0,0,0.18580246913580203,222.405555555555,0)" xlink:href="#L"/><use transform="matrix(0.18580246913580203,0,0,0.18580246913580203,259.5660493827154,0)" xlink:href="#P"/><use transform="matrix(0.18580246913580203,0,0,0.18580246913580203,300.256790123456,0)" xlink:href="#Q"/><use transform="matrix(0.18580246913580203,0,0,0.18580246913580203,337.4172839506164,0)" xlink:href="#V"/></g><path d="M14-72v-43h91v43H14" id="W"/><use transform="matrix(0.18580246913580203,0,0,0.18580246913580203,0,0)" xlink:href="#W" id="e"/><path d="M169-182c-1-43-94-46-97-3 18 66 151 10 154 114 3 95-165 93-204 36-6-8-10-19-12-30l50-8c3 46 112 56 116 5-17-69-150-10-154-114-4-87 153-88 188-35 5 8 8 18 10 28" id="X"/><path d="M110-194c64 0 96 36 96 99 0 64-35 99-97 99-61 0-95-36-95-99 0-62 34-99 96-99zm-1 164c35 0 45-28 45-65 0-40-10-65-43-65-34 0-45 26-45 65 0 36 10 65 43 65" id="Y"/><path d="M25 0v-261h50V0H25" id="Z"/><path d="M85 4C-2 5 27-109 22-190h50c7 57-23 150 33 157 60-5 35-97 40-157h50l1 190h-47c-2-12 1-28-3-38-12 25-28 42-61 42" id="aa"/><path d="M110-194c64 0 96 36 96 99 0 64-35 99-97 99-61 0-95-36-95-99 0-62 34-99 96-99zm-1 164c35 0 45-28 45-65 0-40-10-65-43-65-34 0-45 26-45 65 0 36 10 65 43 65zM81-208v-5l45-51h45v8l-60 48H81" id="ab"/><path d="M135-194c87-1 58 113 63 194h-50c-7-57 23-157-34-157-59 0-34 97-39 157H25l-1-190h47c2 12-1 28 3 38 12-26 28-41 61-42" id="ac"/><g id="f"><use transform="matrix(0.18580246913580203,0,0,0.18580246913580203,0,0)" xlink:href="#X"/><use transform="matrix(0.18580246913580203,0,0,0.18580246913580203,44.59259259259249,0)" xlink:href="#Y"/><use transform="matrix(0.18580246913580203,0,0,0.18580246913580203,85.28333333333313,0)" xlink:href="#Z"/><use transform="matrix(0.18580246913580203,0,0,0.18580246913580203,103.86358024691334,0)" xlink:href="#aa"/><use transform="matrix(0.18580246913580203,0,0,0.18580246913580203,144.55432098765397,0)" xlink:href="#S"/><use transform="matrix(0.18580246913580203,0,0,0.18580246913580203,181.71481481481436,0)" xlink:href="#K"/><use transform="matrix(0.18580246913580203,0,0,0.18580246913580203,200.29506172839456,0)" xlink:href="#ab"/><use transform="matrix(0.18580246913580203,0,0,0.18580246913580203,240.9858024691352,0)" xlink:href="#ac"/></g><path d="M63-220v92h138v28H63V0H30v-248h175v28H63" id="ad"/><path d="M59-47c-2 24 18 29 38 22v24C64 9 27 4 27-40v-127H5v-23h24l9-43h21v43h35v23H59v120" id="ae"/><path d="M100-194c63 0 86 42 84 106H49c0 40 14 67 53 68 26 1 43-12 49-29l28 8c-11 28-37 45-77 45C44 4 14-33 15-96c1-61 26-98 85-98zm52 81c6-60-76-77-97-28-3 7-6 17-6 28h103" id="af"/><path d="M117-194c89-4 53 116 60 194h-32v-121c0-31-8-49-39-48C34-167 62-67 57 0H25l-1-190h30c1 10-1 24 2 32 11-22 29-35 61-36" id="ag"/><g id="g"><use transform="matrix(0.05,0,0,0.05,0,0)" xlink:href="#ad"/><use transform="matrix(0.05,0,0,0.05,10.950000000000001,0)" xlink:href="#G"/><use transform="matrix(0.05,0,0,0.05,14.9,0)" xlink:href="#F"/><use transform="matrix(0.05,0,0,0.05,24.900000000000002,0)" xlink:href="#ae"/><use transform="matrix(0.05,0,0,0.05,29.900000000000002,0)" xlink:href="#ae"/><use transform="matrix(0.05,0,0,0.05,34.900000000000006,0)" xlink:href="#af"/><use transform="matrix(0.05,0,0,0.05,44.900000000000006,0)" xlink:href="#ag"/></g><path d="M233-177c-1 41-23 64-60 70L243 0h-38l-65-103H63V0H30v-248c88 3 205-21 203 71zM63-129c60-2 137 13 137-47 0-61-80-42-137-45v92" id="ah"/><path d="M96-169c-40 0-48 33-48 73s9 75 48 75c24 0 41-14 43-38l32 2c-6 37-31 61-74 61-59 0-76-41-82-99-10-93 101-131 147-64 4 7 5 14 7 22l-32 3c-4-21-16-35-41-35" id="ai"/><path d="M100-194c62-1 85 37 85 99 1 63-27 99-86 99S16-35 15-95c0-66 28-99 85-99zM99-20c44 1 53-31 53-75 0-43-8-75-51-75s-53 32-53 75 10 74 51 75" id="aj"/><path d="M114-163C36-179 61-72 57 0H25l-1-190h30c1 12-1 29 2 39 6-27 23-49 58-41v29" id="ak"/><g id="h"><use transform="matrix(0.05,0,0,0.05,0,0)" xlink:href="#ah"/><use transform="matrix(0.05,0,0,0.05,12.950000000000001,0)" xlink:href="#af"/><use transform="matrix(0.05,0,0,0.05,22.950000000000003,0)" xlink:href="#ai"/><use transform="matrix(0.05,0,0,0.05,31.950000000000003,0)" xlink:href="#aj"/><use transform="matrix(0.05,0,0,0.05,41.95,0)" xlink:href="#ag"/><use transform="matrix(0.05,0,0,0.05,51.95,0)" xlink:href="#aj"/><use transform="matrix(0.05,0,0,0.05,61.95,0)" xlink:href="#ai"/><use transform="matrix(0.05,0,0,0.05,70.95,0)" xlink:href="#af"/><use transform="matrix(0.05,0,0,0.05,80.95,0)" xlink:href="#ak"/></g><path d="M135-143c-3-34-86-38-87 0 15 53 115 12 119 90S17 21 10-45l28-5c4 36 97 45 98 0-10-56-113-15-118-90-4-57 82-63 122-42 12 7 21 19 24 35" id="al"/><g id="i"><use transform="matrix(0.05,0,0,0.05,0,0)" xlink:href="#af"/><use transform="matrix(0.05,0,0,0.05,10,0)" xlink:href="#al"/><use transform="matrix(0.05,0,0,0.05,19,0)" xlink:href="#ae"/><use transform="matrix(0.05,0,0,0.05,24,0)" xlink:href="#F"/><use transform="matrix(0.05,0,0,0.05,34,0)" xlink:href="#I"/><use transform="matrix(0.05,0,0,0.05,44,0)" xlink:href="#aj"/></g><g id="j"><use transform="matrix(0.05,0,0,0.05,0,0)" xlink:href="#I"/><use transform="matrix(0.05,0,0,0.05,10,0)" xlink:href="#af"/></g><path d="M210-169c-67 3-38 105-44 169h-31v-121c0-29-5-50-35-48C34-165 62-65 56 0H25l-1-190h30c1 10-1 24 2 32 10-44 99-50 107 0 11-21 27-35 58-36 85-2 47 119 55 194h-31v-121c0-29-5-49-35-48" id="am"/><path d="M141-36C126-15 110 5 73 4 37 3 15-17 15-53c-1-64 63-63 125-63 3-35-9-54-41-54-24 1-41 7-42 31l-33-3c5-37 33-52 76-52 45 0 72 20 72 64v82c-1 20 7 32 28 27v20c-31 9-61-2-59-35zM48-53c0 20 12 33 32 33 41-3 63-29 60-74-43 2-92-5-92 41zm25-158c8-23 27-35 38-54h36v5l-58 49H73" id="an"/><path d="M101-234c-31-9-42 10-38 44h38v23H63V0H32v-167H5v-23h27c-7-52 17-82 69-68v24" id="ao"/><g id="k"><use transform="matrix(0.05,0,0,0.05,0,0)" xlink:href="#al"/><use transform="matrix(0.05,0,0,0.05,9,0)" xlink:href="#af"/><use transform="matrix(0.05,0,0,0.05,19,0)" xlink:href="#am"/><use transform="matrix(0.05,0,0,0.05,33.95,0)" xlink:href="#an"/><use transform="matrix(0.05,0,0,0.05,43.95,0)" xlink:href="#ao"/><use transform="matrix(0.05,0,0,0.05,48.95,0)" xlink:href="#aj"/><use transform="matrix(0.05,0,0,0.05,58.95,0)" xlink:href="#ak"/><use transform="matrix(0.05,0,0,0.05,64.9,0)" xlink:href="#aj"/><use transform="matrix(0.05,0,0,0.05,74.9,0)" xlink:href="#al"/></g><path d="M30 0v-248h187v28H63v79h144v27H63v87h162V0H30" id="ap"/><g id="l"><use transform="matrix(0.05,0,0,0.05,0,0)" xlink:href="#ap"/><use transform="matrix(0.05,0,0,0.05,12,0)" xlink:href="#ag"/><use transform="matrix(0.05,0,0,0.05,22,0)" xlink:href="#ae"/><use transform="matrix(0.05,0,0,0.05,27,0)" xlink:href="#ak"/><use transform="matrix(0.05,0,0,0.05,32.95,0)" xlink:href="#F"/><use transform="matrix(0.05,0,0,0.05,42.95,0)" xlink:href="#I"/><use transform="matrix(0.05,0,0,0.05,52.95,0)" xlink:href="#F"/></g><path d="M30-248c118-7 216 8 213 122C240-48 200 0 122 0H30v-248zM63-27c89 8 146-16 146-99s-60-101-146-95v194" id="aq"/><g id="m"><use transform="matrix(0.05,0,0,0.05,0,0)" xlink:href="#aq"/><use transform="matrix(0.05,0,0,0.05,12.950000000000001,0)" xlink:href="#F"/><use transform="matrix(0.05,0,0,0.05,22.950000000000003,0)" xlink:href="#ae"/><use transform="matrix(0.05,0,0,0.05,27.950000000000003,0)" xlink:href="#aj"/><use transform="matrix(0.05,0,0,0.05,37.95,0)" xlink:href="#al"/></g><path d="M212-179c-10-28-35-45-73-45-59 0-87 40-87 99 0 60 29 101 89 101 43 0 62-24 78-52l27 14C228-24 195 4 139 4 59 4 22-46 18-125c-6-104 99-153 187-111 19 9 31 26 39 46" id="ar"/><path d="M115-194c55 1 70 41 70 98S169 2 115 4C84 4 66-9 55-30l1 105H24l-1-265h31l2 30c10-21 28-34 59-34zm-8 174c40 0 45-34 45-75s-6-73-45-74c-42 0-51 32-51 76 0 43 10 73 51 73" id="as"/><g id="n"><use transform="matrix(0.05,0,0,0.05,0,0)" xlink:href="#ar"/><use transform="matrix(0.05,0,0,0.05,12.950000000000001,0)" xlink:href="#F"/><use transform="matrix(0.05,0,0,0.05,22.950000000000003,0)" xlink:href="#as"/><use transform="matrix(0.05,0,0,0.05,32.95,0)" xlink:href="#F"/></g><path d="M108 0H70L1-190h34L89-25l56-165h34" id="at"/><path d="M84 4C-5 8 30-112 23-190h32v120c0 31 7 50 39 49 72-2 45-101 50-169h31l1 190h-30c-1-10 1-25-2-33-11 22-28 36-60 37" id="au"/><g id="o"><use transform="matrix(0.05,0,0,0.05,0,0)" xlink:href="#ar"/><use transform="matrix(0.05,0,0,0.05,12.950000000000001,0)" xlink:href="#aj"/><use transform="matrix(0.05,0,0,0.05,22.950000000000003,0)" xlink:href="#ag"/><use transform="matrix(0.05,0,0,0.05,32.95,0)" xlink:href="#at"/><use transform="matrix(0.05,0,0,0.05,41.95,0)" xlink:href="#aj"/><use transform="matrix(0.05,0,0,0.05,51.95,0)" xlink:href="#G"/><use transform="matrix(0.05,0,0,0.05,55.900000000000006,0)" xlink:href="#au"/><use transform="matrix(0.05,0,0,0.05,65.9,0)" xlink:href="#ai"/><use transform="matrix(0.05,0,0,0.05,74.9,0)" xlink:href="#H"/><use transform="matrix(0.05,0,0,0.05,78.85000000000001,0)" xlink:href="#aj"/><use transform="matrix(0.05,0,0,0.05,88.85000000000001,0)" xlink:href="#ag"/><use transform="matrix(0.05,0,0,0.05,98.85000000000001,0)" xlink:href="#F"/><use transform="matrix(0.05,0,0,0.05,108.85000000000001,0)" xlink:href="#G"/></g><path d="M240 0l2-218c-23 76-54 145-80 218h-23L58-218 59 0H30v-248h44l77 211c21-75 51-140 76-211h43V0h-30" id="av"/><path d="M141 0L90-78 38 0H4l68-98-65-92h35l48 74 47-74h35l-64 92 68 98h-35" id="aw"/><g id="p"><use transform="matrix(0.05,0,0,0.05,0,0)" xlink:href="#av"/><use transform="matrix(0.05,0,0,0.05,14.950000000000001,0)" xlink:href="#F"/><use transform="matrix(0.05,0,0,0.05,24.950000000000003,0)" xlink:href="#aw"/></g><path d="M30-248c87 1 191-15 191 75 0 78-77 80-158 76V0H30v-248zm33 125c57 0 124 11 124-50 0-59-68-47-124-48v98" id="ax"/><path d="M177-190C167-65 218 103 67 71c-23-6-38-20-44-43l32-5c15 47 100 32 89-28v-30C133-14 115 1 83 1 29 1 15-40 15-95c0-56 16-97 71-98 29-1 48 16 59 35 1-10 0-23 2-32h30zM94-22c36 0 50-32 50-73 0-42-14-75-50-75-39 0-46 34-46 75s6 73 46 73" id="ay"/><g id="q"><use transform="matrix(0.05,0,0,0.05,0,0)" xlink:href="#ax"/><use transform="matrix(0.05,0,0,0.05,12,0)" xlink:href="#aj"/><use transform="matrix(0.05,0,0,0.05,22,0)" xlink:href="#aj"/><use transform="matrix(0.05,0,0,0.05,32,0)" xlink:href="#G"/><use transform="matrix(0.05,0,0,0.05,35.95,0)" xlink:href="#H"/><use transform="matrix(0.05,0,0,0.05,39.900000000000006,0)" xlink:href="#ag"/><use transform="matrix(0.05,0,0,0.05,49.900000000000006,0)" xlink:href="#ay"/></g><path d="M30 0v-248h33v221h125V0H30" id="az"/><g id="r"><use transform="matrix(0.05,0,0,0.05,0,0)" xlink:href="#av"/><use transform="matrix(0.05,0,0,0.05,14.950000000000001,0)" xlink:href="#az"/><use transform="matrix(0.05,0,0,0.05,24.950000000000003,0)" xlink:href="#ax"/></g><g id="s"><use transform="matrix(0.05,0,0,0.05,0,0)" xlink:href="#ah"/><use transform="matrix(0.05,0,0,0.05,12.950000000000001,0)" xlink:href="#af"/><use transform="matrix(0.05,0,0,0.05,22.950000000000003,0)" xlink:href="#ai"/><use transform="matrix(0.05,0,0,0.05,31.950000000000003,0)" xlink:href="#aj"/><use transform="matrix(0.05,0,0,0.05,41.95,0)" xlink:href="#G"/><use transform="matrix(0.05,0,0,0.05,45.900000000000006,0)" xlink:href="#af"/><use transform="matrix(0.05,0,0,0.05,55.900000000000006,0)" xlink:href="#ai"/><use transform="matrix(0.05,0,0,0.05,64.9,0)" xlink:href="#ae"/><use transform="matrix(0.05,0,0,0.05,69.9,0)" xlink:href="#F"/><use transform="matrix(0.05,0,0,0.05,79.9,0)" xlink:href="#ak"/></g><g id="t"><use transform="matrix(0.05,0,0,0.05,0,0)" xlink:href="#H"/><use transform="matrix(0.05,0,0,0.05,3.95,0)" xlink:href="#am"/><use transform="matrix(0.05,0,0,0.05,18.900000000000002,0)" xlink:href="#an"/><use transform="matrix(0.05,0,0,0.05,28.900000000000002,0)" xlink:href="#ay"/><use transform="matrix(0.05,0,0,0.05,38.900000000000006,0)" xlink:href="#af"/><use transform="matrix(0.05,0,0,0.05,48.900000000000006,0)" xlink:href="#ag"/><use transform="matrix(0.05,0,0,0.05,58.900000000000006,0)" xlink:href="#af"/><use transform="matrix(0.05,0,0,0.05,68.9,0)" xlink:href="#al"/></g><g id="u"><use transform="matrix(0.05,0,0,0.05,0,0)" xlink:href="#ap"/><use transform="matrix(0.05,0,0,0.05,12,0)" xlink:href="#ao"/><use transform="matrix(0.05,0,0,0.05,17,0)" xlink:href="#af"/><use transform="matrix(0.05,0,0,0.05,27,0)" xlink:href="#ai"/><use transform="matrix(0.05,0,0,0.05,36,0)" xlink:href="#ae"/><use transform="matrix(0.05,0,0,0.05,41,0)" xlink:href="#au"/><use transform="matrix(0.05,0,0,0.05,51,0)" xlink:href="#F"/><use transform="matrix(0.05,0,0,0.05,61,0)" xlink:href="#ak"/></g><path d="M100-194c62-1 85 37 85 99 1 63-27 99-86 99S16-35 15-95c0-66 28-99 85-99zM99-20c44 1 53-31 53-75 0-43-8-75-51-75s-53 32-53 75 10 74 51 75zM76-211c8-23 27-35 38-54h36v5l-58 49H76" id="aA"/><g id="v"><use transform="matrix(0.05,0,0,0.05,0,0)" xlink:href="#ai"/><use transform="matrix(0.05,0,0,0.05,9,0)" xlink:href="#aj"/><use transform="matrix(0.05,0,0,0.05,19,0)" xlink:href="#ag"/><use transform="matrix(0.05,0,0,0.05,29,0)" xlink:href="#at"/><use transform="matrix(0.05,0,0,0.05,38,0)" xlink:href="#aj"/><use transform="matrix(0.05,0,0,0.05,48,0)" xlink:href="#G"/><use transform="matrix(0.05,0,0,0.05,51.95,0)" xlink:href="#au"/><use transform="matrix(0.05,0,0,0.05,61.95,0)" xlink:href="#ai"/><use transform="matrix(0.05,0,0,0.05,70.95,0)" xlink:href="#H"/><use transform="matrix(0.05,0,0,0.05,74.9,0)" xlink:href="#aA"/><use transform="matrix(0.05,0,0,0.05,84.9,0)" xlink:href="#ag"/></g><g id="w"><use transform="matrix(0.05,0,0,0.05,0,0)" xlink:href="#ai"/><use transform="matrix(0.05,0,0,0.05,9,0)" xlink:href="#aj"/><use transform="matrix(0.05,0,0,0.05,19,0)" xlink:href="#ag"/></g><path d="M232-93c-1 65-40 97-104 97C67 4 28-28 28-90v-158h33c8 89-33 224 67 224 102 0 64-133 71-224h33v155" id="aB"/><g id="x"><use transform="matrix(0.05,0,0,0.05,0,0)" xlink:href="#ah"/><use transform="matrix(0.05,0,0,0.05,12.950000000000001,0)" xlink:href="#ap"/><use transform="matrix(0.05,0,0,0.05,24.950000000000003,0)" xlink:href="#az"/><use transform="matrix(0.05,0,0,0.05,34.95,0)" xlink:href="#aB"/></g><g id="y"><use transform="matrix(0.05,0,0,0.05,0,0)" xlink:href="#ah"/><use transform="matrix(0.05,0,0,0.05,12.950000000000001,0)" xlink:href="#af"/><use transform="matrix(0.05,0,0,0.05,22.950000000000003,0)" xlink:href="#ao"/><use transform="matrix(0.05,0,0,0.05,27.950000000000003,0)" xlink:href="#H"/><use transform="matrix(0.05,0,0,0.05,31.900000000000002,0)" xlink:href="#ag"/><use transform="matrix(0.05,0,0,0.05,41.900000000000006,0)" xlink:href="#F"/><use transform="matrix(0.05,0,0,0.05,51.900000000000006,0)" xlink:href="#ak"/></g><g id="z"><use transform="matrix(0.05,0,0,0.05,0,0)" xlink:href="#as"/><use transform="matrix(0.05,0,0,0.05,10,0)" xlink:href="#F"/><use transform="matrix(0.05,0,0,0.05,20,0)" xlink:href="#ae"/><use transform="matrix(0.05,0,0,0.05,25,0)" xlink:href="#ak"/><use transform="matrix(0.05,0,0,0.05,30.950000000000003,0)" xlink:href="#aA"/><use transform="matrix(0.05,0,0,0.05,40.95,0)" xlink:href="#ag"/></g><g id="A"><use transform="matrix(0.05,0,0,0.05,0,0)" xlink:href="#F"/><use transform="matrix(0.05,0,0,0.05,10,0)" xlink:href="#ai"/><use transform="matrix(0.05,0,0,0.05,19,0)" xlink:href="#ae"/><use transform="matrix(0.05,0,0,0.05,24,0)" xlink:href="#H"/><use transform="matrix(0.05,0,0,0.05,27.950000000000003,0)" xlink:href="#at"/><use transform="matrix(0.05,0,0,0.05,36.95,0)" xlink:href="#F"/><use transform="matrix(0.05,0,0,0.05,46.95,0)" xlink:href="#ai"/><use transform="matrix(0.05,0,0,0.05,55.95,0)" xlink:href="#H"/><use transform="matrix(0.05,0,0,0.05,59.900000000000006,0)" xlink:href="#aA"/><use transform="matrix(0.05,0,0,0.05,69.9,0)" xlink:href="#ag"/></g><g id="B"><use transform="matrix(0.05,0,0,0.05,0,0)" xlink:href="#ai"/><use transform="matrix(0.05,0,0,0.05,9,0)" xlink:href="#G"/><use transform="matrix(0.05,0,0,0.05,12.949999999999998,0)" xlink:href="#F"/><use transform="matrix(0.05,0,0,0.05,22.95,0)" xlink:href="#al"/><use transform="matrix(0.05,0,0,0.05,31.950000000000003,0)" xlink:href="#H"/><use transform="matrix(0.05,0,0,0.05,35.9,0)" xlink:href="#ao"/><use transform="matrix(0.05,0,0,0.05,40.9,0)" xlink:href="#H"/><use transform="matrix(0.05,0,0,0.05,44.85,0)" xlink:href="#ai"/><use transform="matrix(0.05,0,0,0.05,53.85,0)" xlink:href="#F"/><use transform="matrix(0.05,0,0,0.05,63.85,0)" xlink:href="#ai"/><use transform="matrix(0.05,0,0,0.05,72.85,0)" xlink:href="#H"/><use transform="matrix(0.05,0,0,0.05,76.8,0)" xlink:href="#aA"/><use transform="matrix(0.05,0,0,0.05,86.8,0)" xlink:href="#ag"/></g><g id="C"><use transform="matrix(0.05,0,0,0.05,0,0)" xlink:href="#E"/><use transform="matrix(0.05,0,0,0.05,12,0)" xlink:href="#aj"/><use transform="matrix(0.05,0,0,0.05,22,0)" xlink:href="#ao"/><use transform="matrix(0.05,0,0,0.05,27,0)" xlink:href="#ae"/><use transform="matrix(0.05,0,0,0.05,32,0)" xlink:href="#av"/><use transform="matrix(0.05,0,0,0.05,46.95,0)" xlink:href="#F"/><use transform="matrix(0.05,0,0,0.05,56.95,0)" xlink:href="#aw"/></g><g id="D"><use transform="matrix(0.05,0,0,0.05,0,0)" xlink:href="#aq"/><use transform="matrix(0.05,0,0,0.05,12.950000000000001,0)" xlink:href="#ak"/><use transform="matrix(0.05,0,0,0.05,18.900000000000002,0)" xlink:href="#aj"/><use transform="matrix(0.05,0,0,0.05,28.900000000000002,0)" xlink:href="#as"/><use transform="matrix(0.05,0,0,0.05,38.900000000000006,0)" xlink:href="#aj"/><use transform="matrix(0.05,0,0,0.05,48.900000000000006,0)" xlink:href="#au"/><use transform="matrix(0.05,0,0,0.05,58.900000000000006,0)" xlink:href="#ae"/></g></defs></g></svg>